<?xml version="1.0" standalone="no"?><!DOCTYPE svg PUBLIC "-//W3C//DTD SVG 1.1//EN" "http://www.w3.org/Graphics/SVG/1.1/DTD/svg11.dtd"><svg t="1556009157462" class="icon" style="" viewBox="0 0 1024 1024" version="1.1" xmlns="http://www.w3.org/2000/svg" p-id="5962" xmlns:xlink="http://www.w3.org/1999/xlink" width="200" height="200"><defs><style type="text/css"></style></defs><path d="M307.3 781.5c-1.2 0-2.4-0.3-3.4-0.9l-145.3-82.7c-2.2-1.2-3.5-3.5-3.5-6V241.2c0-2.4 1.3-4.7 3.3-5.9L422.9 74.6c1.1-0.7 2.4-1 3.6-1 1.2 0 2.4 0.3 3.5 1l143.1 84.9c2.1 1.2 3.4 3.5 3.4 5.9v457.4c0 2.5-1.3 4.7-3.5 6L310.8 780.6c-1.1 0.6-2.3 0.9-3.5 0.9z" fill="#B5D6FB" p-id="5963"></path><path d="M426.4 80.5l143.1 84.9v457.4L307.3 774.6 162 691.9V241.2L426.4 80.5m0-13.8c-2.5 0-5 0.7-7.2 2L154.9 229.4c-4.1 2.5-6.6 7-6.6 11.8v450.7c0 5 2.7 9.6 7 12l145.3 82.7c2.1 1.2 4.5 1.8 6.8 1.8 2.4 0 4.8-0.6 6.9-1.9l262.2-151.8c4.3-2.5 6.9-7 6.9-12V165.4c0-4.9-2.6-9.4-6.8-11.9L433.5 68.6c-2.2-1.3-4.6-1.9-7.1-1.9z" fill="#0276F7" p-id="5964"></path><path d="M307.3 743.4V322.5" fill="#B5D6FB" p-id="5965"></path><path d="M307.3 750.4c-3.8 0-6.9-3.1-6.9-6.9v-421c0-3.8 3.1-6.9 6.9-6.9s6.9 3.1 6.9 6.9v420.9c0 3.9-3.1 7-6.9 7z" fill="#0276F7" p-id="5966"></path><path d="M542.7 181.5l-235.4 141" fill="#B5D6FB" p-id="5967"></path><path d="M307.3 329.4c-2.4 0-4.6-1.2-5.9-3.4-2-3.3-0.9-7.5 2.4-9.5l235.4-141c3.3-2 7.5-0.9 9.5 2.4s0.9 7.5-2.4 9.5l-235.4 141c-1.2 0.7-2.4 1-3.6 1z" fill="#0276F7" p-id="5968"></path><path d="M188.3 255.9l119 66.6" fill="#B5D6FB" p-id="5969"></path><path d="M307.3 329.4c-1.1 0-2.3-0.3-3.4-0.9l-119-66.7c-3.3-1.9-4.5-6.1-2.7-9.4 1.9-3.3 6.1-4.5 9.4-2.7l119 66.6c3.3 1.9 4.5 6.1 2.7 9.4-1.2 2.5-3.6 3.7-6 3.7z" fill="#0276F7" p-id="5970"></path><path d="M183.8 628.9l93.3 55.5" fill="#B5D6FB" p-id="5971"></path><path d="M277 691.3c-1.2 0-2.4-0.3-3.5-1l-93.2-55.5c-3.3-2-4.4-6.2-2.4-9.5 2-3.3 6.2-4.4 9.5-2.4l93.2 55.5c3.3 2 4.4 6.2 2.4 9.5-1.3 2.2-3.6 3.4-6 3.4z" fill="#0276F7" p-id="5972"></path><path d="M183.8 587.9l93.3 55.5" fill="#B5D6FB" p-id="5973"></path><path d="M277 650.3c-1.2 0-2.4-0.3-3.5-1l-93.2-55.5c-3.3-2-4.4-6.2-2.4-9.5 2-3.3 6.2-4.4 9.5-2.4l93.2 55.5c3.3 2 4.4 6.2 2.4 9.5-1.3 2.2-3.6 3.4-6 3.4z" fill="#0276F7" p-id="5974"></path><path d="M183.8 546.8l93.3 55.5" fill="#B5D6FB" p-id="5975"></path><path d="M277 609.2c-1.2 0-2.4-0.3-3.5-1l-93.2-55.5c-3.3-2-4.4-6.2-2.4-9.5 2-3.3 6.2-4.4 9.5-2.4l93.2 55.5c3.3 2 4.4 6.2 2.4 9.5-1.3 2.2-3.6 3.4-6 3.4z" fill="#0276F7" p-id="5976"></path><path d="M158.3 464.7l149 83.9" fill="#B5D6FB" p-id="5977"></path><path d="M154.914 470.761l6.766-12.026 149.026 83.84-6.766 12.028z" fill="#0276F7" p-id="5978"></path><path d="M271.7 361l-20.1-10" fill="#B5D6FB" p-id="5979"></path><path d="M271.7 368c-1 0-2.1-0.2-3.1-0.7l-20-10c-3.4-1.7-4.8-5.9-3.1-9.3 1.7-3.4 5.9-4.8 9.3-3.1l20 10c3.4 1.7 4.8 5.9 3.1 9.3-1.3 2.4-3.7 3.8-6.2 3.8z" fill="#0276F7" p-id="5980"></path><path d="M454.5 868.3c-1.2 0-2.4-0.3-3.4-0.9l-145.3-82.7c-2.2-1.2-3.5-3.5-3.5-6V328c0-2.4 1.3-4.7 3.3-5.9L570 161.4c1.1-0.7 2.4-1 3.6-1 1.2 0 2.3 0.3 3.4 0.9l145.3 82.1c2.2 1.2 3.5 3.5 3.5 6l0.8 458.5c0 2.5-1.3 4.8-3.5 6L457.9 867.4c-1.1 0.6-2.2 0.9-3.4 0.9z" fill="#FFFFFF" p-id="5981"></path><path d="M573.6 167.3l145.3 82.1 0.8 458.5-265.2 153.5-145.3-82.7V328l264.4-160.7m0-13.8c-2.5 0-5 0.7-7.2 2L302 316.2c-4.1 2.5-6.6 7-6.6 11.8v450.7c0 5 2.7 9.6 7 12l145.3 82.7c2.1 1.2 4.5 1.8 6.8 1.8 2.4 0 4.8-0.6 6.9-1.9l265.2-153.5c4.3-2.5 6.9-7 6.9-12l-0.8-458.5c0-5-2.7-9.6-7-12l-145.3-82.1c-2.1-1.1-4.5-1.7-6.8-1.7z" fill="#0276F7" p-id="5982"></path><path d="M454.5 861.4V409.3" fill="#B5D6FB" p-id="5983"></path><path d="M447.5 409.3h13.8v452.1h-13.8z" fill="#0276F7" p-id="5984"></path><path d="M718.9 249.4L454.5 409.3" fill="#B5D6FB" p-id="5985"></path><path d="M450.93 403.34l264.381-159.97 7.144 11.807-264.38 159.97z" fill="#0276F7" p-id="5986"></path><path d="M332.2 340.8l122.3 68.5" fill="#B5D6FB" p-id="5987"></path><path d="M454.4 416.2c-1.1 0-2.3-0.3-3.4-0.9l-122.3-68.5c-3.3-1.9-4.5-6.1-2.7-9.4 1.9-3.3 6.1-4.5 9.4-2.7l122.3 68.5c3.3 1.9 4.5 6.1 2.7 9.4-1.2 2.3-3.5 3.6-6 3.6z" fill="#0276F7" p-id="5988"></path><path d="M331.4 711.6l93.2 55.5" fill="#B5D6FB" p-id="5989"></path><path d="M424.6 774c-1.2 0-2.4-0.3-3.5-1l-93.2-55.5c-3.3-2-4.4-6.2-2.4-9.5 2-3.3 6.2-4.4 9.5-2.4l93.2 55.5c3.3 2 4.4 6.2 2.4 9.5-1.4 2.2-3.7 3.4-6 3.4z" fill="#0276F7" p-id="5990"></path><path d="M331.4 670.5l93.2 55.5" fill="#B5D6FB" p-id="5991"></path><path d="M424.6 732.9c-1.2 0-2.4-0.3-3.5-1l-93.2-55.5c-3.3-2-4.4-6.2-2.4-9.5 2-3.3 6.2-4.4 9.5-2.4l93.2 55.5c3.3 2 4.4 6.2 2.4 9.5-1.4 2.2-3.7 3.4-6 3.4z" fill="#0276F7" p-id="5992"></path><path d="M331.4 629.4l93.2 55.5" fill="#B5D6FB" p-id="5993"></path><path d="M424.6 691.8c-1.2 0-2.4-0.3-3.5-1l-93.2-55.5c-3.3-2-4.4-6.2-2.4-9.5 2-3.3 6.2-4.4 9.5-2.4l93.2 55.5c3.3 2 4.4 6.2 2.4 9.5-1.4 2.2-3.7 3.4-6 3.4z" fill="#0276F7" p-id="5994"></path><path d="M301.4 549.2l153.1 86.2" fill="#B5D6FB" p-id="5995"></path><path d="M297.979 555.288l6.766-12.027 153.036 86.097-6.767 12.026z" fill="#0276F7" p-id="5996"></path><path d="M423.1 452L403 442" fill="#B5D6FB" p-id="5997"></path><path d="M423 459c-1 0-2.1-0.2-3.1-0.7l-20-10c-3.4-1.7-4.8-5.9-3.1-9.3 1.7-3.4 5.9-4.8 9.3-3.1l20 10c3.4 1.7 4.8 5.9 3.1 9.3-1.2 2.4-3.6 3.8-6.2 3.8z" fill="#0276F7" p-id="5998"></path><path d="M599.7 950.4c-1.2 0-2.4-0.3-3.4-0.9L451 866.8c-2.2-1.2-3.5-3.5-3.5-6V410.1c0-2.4 1.3-4.7 3.3-5.9l264.4-160.7c1.1-0.7 2.4-1 3.6-1 1.2 0 2.4 0.3 3.5 1l143.1 84.9c2.1 1.2 3.4 3.5 3.4 5.9v457.4c0 2.5-1.3 4.7-3.5 6L603.2 949.5c-1.1 0.6-2.3 0.9-3.5 0.9z" fill="#B5D6FB" p-id="5999"></path><path d="M718.9 249.4L862 334.3v457.4L599.7 943.5l-145.3-82.7V410.1l264.5-160.7m0-13.8c-2.5 0-5 0.7-7.2 2L447.3 398.2c-4.1 2.5-6.6 7-6.6 11.8v450.7c0 5 2.7 9.6 7 12L593 955.4c2.1 1.2 4.5 1.8 6.8 1.8 2.4 0 4.8-0.6 6.9-1.9l262.2-151.8c4.3-2.5 6.9-7 6.9-12V334.3c0-4.9-2.6-9.4-6.8-11.9l-143.1-84.9c-2.2-1.3-4.6-1.9-7-1.9z" fill="#0276F7" p-id="6000"></path><path d="M599.7 912.3V491.4" fill="#B5D6FB" p-id="6001"></path><path d="M599.7 919.2c-3.8 0-6.9-3.1-6.9-6.9V491.4c0-3.8 3.1-6.9 6.9-6.9s6.9 3.1 6.9 6.9v420.9c0 3.8-3.1 6.9-6.9 6.9z" fill="#0276F7" p-id="6002"></path><path d="M835.1 350.3L599.7 491.4" fill="#B5D6FB" p-id="6003"></path><path d="M599.7 498.3c-2.4 0-4.6-1.2-5.9-3.4-2-3.3-0.9-7.5 2.4-9.5l235.4-141c3.3-2 7.5-0.9 9.5 2.4s0.9 7.5-2.4 9.5l-235.4 141c-1.2 0.7-2.4 1-3.6 1z" fill="#0276F7" p-id="6004"></path><path d="M480.7 424.7l119 66.7" fill="#B5D6FB" p-id="6005"></path><path d="M599.7 498.3c-1.1 0-2.3-0.3-3.4-0.9l-119-66.6c-3.3-1.9-4.5-6.1-2.7-9.4 1.9-3.3 6.1-4.5 9.4-2.7l119 66.7c3.3 1.9 4.5 6.1 2.7 9.4-1.2 2.2-3.6 3.5-6 3.5z" fill="#0276F7" p-id="6006"></path><path d="M476.2 797.8l93.3 55.5" fill="#B5D6FB" p-id="6007"></path><path d="M569.5 860.2c-1.2 0-2.4-0.3-3.5-1l-93.2-55.5c-3.3-2-4.4-6.2-2.4-9.5 2-3.3 6.2-4.4 9.5-2.4l93.2 55.5c3.3 2 4.4 6.2 2.4 9.5-1.4 2.2-3.7 3.4-6 3.4z" fill="#0276F7" p-id="6008"></path><path d="M476.2 756.7l93.3 55.5" fill="#B5D6FB" p-id="6009"></path><path d="M569.5 819.1c-1.2 0-2.4-0.3-3.5-1l-93.2-55.5c-3.3-2-4.4-6.2-2.4-9.5 2-3.3 6.2-4.4 9.5-2.4l93.2 55.5c3.3 2 4.4 6.2 2.4 9.5-1.4 2.2-3.7 3.4-6 3.4z" fill="#0276F7" p-id="6010"></path><path d="M476.2 715.6l93.3 55.5" fill="#B5D6FB" p-id="6011"></path><path d="M569.5 778.1c-1.2 0-2.4-0.3-3.5-1l-93.2-55.5c-3.3-2-4.4-6.2-2.4-9.5 2-3.3 6.2-4.4 9.5-2.4l93.2 55.5c3.3 2 4.4 6.2 2.4 9.5-1.4 2.2-3.7 3.4-6 3.4z" fill="#0276F7" p-id="6012"></path><path d="M450.7 633.6l149 83.8" fill="#B5D6FB" p-id="6013"></path><path d="M447.26 639.608l6.766-12.027 149.027 83.842-6.766 12.026z" fill="#0276F7" p-id="6014"></path><path d="M564.1 529.9l-20-10" fill="#B5D6FB" p-id="6015"></path><path d="M564.1 536.8c-1 0-2.1-0.2-3.1-0.7l-20-10c-3.4-1.7-4.8-5.9-3.1-9.3 1.7-3.4 5.9-4.8 9.3-3.1l20 10c3.4 1.7 4.8 5.9 3.1 9.3-1.3 2.4-3.7 3.8-6.2 3.8z" fill="#0276F7" p-id="6016"></path></svg>