<?xml version="1.0" standalone="no"?><!DOCTYPE svg PUBLIC "-//W3C//DTD SVG 1.1//EN" "http://www.w3.org/Graphics/SVG/1.1/DTD/svg11.dtd"><svg t="1556009236220" class="icon" style="" viewBox="0 0 1024 1024" version="1.1" xmlns="http://www.w3.org/2000/svg" p-id="8282" xmlns:xlink="http://www.w3.org/1999/xlink" width="200" height="200"><defs><style type="text/css"></style></defs><path d="M439.758 0l-42.896 24.766-0.358 418.356L31.816 653.672l0.14 49.294L584.382 1024l407.584-235.318 0.218-467.648z" fill="#4D4D4D" p-id="8283"></path><path d="M992.184 321.034l-0.218 467.648L584.382 1024l-0.14-49.292 365.042-210.552V345.802z" fill="#666666" p-id="8284"></path><path d="M584.382 1024L31.956 702.966l-0.14-49.294 552.426 321.036z" fill="#4D4D4D" p-id="8285"></path><path d="M584.242 974.708L31.816 653.672l364.688-210.55 552.78 321.034z" fill="#474747" p-id="8286"></path><path d="M373.768 836.862l-152.836-88.818 100.896-58.252 152.934 88.818z" fill="#77767E" p-id="8287"></path><path d="M949.284 764.156l-552.78-321.034 0.358-418.356 552.422 321.036z" fill="#4D4D4D" p-id="8288"></path><path d="M907.986 691.574L437.804 418.478l0.302-309.676 469.88 273.066z" fill="#E0E0E2" p-id="8289"></path><path d="M949.284 345.802L396.862 24.766 439.758 0l552.426 321.034z" fill="#808080" p-id="8290"></path><path d="M831.256 709.402l-7.608 4.422 0.026-8.8-37.948-21.91-7.608 4.422 0.026-8.8-37.946-21.91-7.608 4.422 0.026-8.8-37.946-21.91-7.608 4.422 0.026-8.802-37.946-21.91-7.608 4.422 0.026-8.8-37.946-21.91-7.608 4.422 0.026-8.8-37.946-21.91-7.616 4.426 0.026-8.808-37.948-21.91-7.608 4.422 0.026-8.8-37.946-21.91-7.608 4.422 0.026-8.8-37.946-21.91-35.706 20.75-0.026 8.714-7.51-4.336-35.714 20.754-0.026 8.714-7.51-4.336-35.708 20.752-0.026 8.714-7.51-4.336-35.706 20.75-0.026 8.716-7.51-4.336-35.706 20.75-0.05 17.43 37.946 21.91 7.608-4.422-0.026 8.8 37.946 21.91 7.608-4.422-0.026 8.8 37.948 21.91 7.616-4.426-0.026 8.808 37.946 21.91 7.608-4.422-0.026 8.8 37.946 21.91 7.608-4.422-0.026 8.8 37.946 21.91 7.608-4.422-0.026 8.802 37.946 21.91 7.608-4.422-0.026 8.8 37.946 21.91 7.608-4.422-0.026 8.8 37.948 21.91 7.608-4.422-0.026 8.8 37.946 21.91 35.706-20.75 0.026-8.716 7.51 4.336 35.706-20.75 0.026-8.714 7.51 4.336 35.708-20.752 0.026-8.714 7.51 4.336 35.712-20.754 0.026-8.714 7.51 4.336 35.706-20.75 0.05-17.43-37.944-21.91z m-35.804 29.424l0.074-0.042v0.084l-0.074-0.042z m-43.248 25.134l0.074-0.042v0.084l-0.074-0.042z m-43.24 25.128l0.074-0.042v0.084l-0.074-0.042z m-43.242 25.128l0.074-0.042v0.086l-0.074-0.044z m40.952-76.546l0.074-0.042v0.084l-0.074-0.042zM663.432 762.8l0.074-0.042v0.084l-0.074-0.042z m-45.532-26.288l0.074-0.042v0.084l-0.074-0.042z m-45.53-26.286l0.074-0.042v0.086l-0.074-0.044z m-45.532-26.288l0.074-0.042v0.084l-0.074-0.042z m-45.53-26.286l0.074-0.042v0.084l-0.074-0.042z m-45.538-26.292l0.08-0.046v0.092l-0.08-0.046z m-45.532-26.288l0.074-0.042v0.084l-0.074-0.042z m-14.972 0.086l-0.074 0.042v-0.084l0.074 0.042z m316.36 132.556l0.074 0.042-0.074 0.042v-0.084z m-30.482-26.33l0.074-0.042v0.084l-0.074-0.042z m-15.048 0.126v-0.084l0.074 0.042-0.074 0.042z m-30.484-26.414l0.074-0.042v0.086l-0.074-0.044z m-15.046 0.13v-0.086l0.074 0.042-0.074 0.044z m-30.486-26.416l0.074-0.042v0.084l-0.074-0.042z m-15.046 0.126v-0.084l0.074 0.042-0.074 0.042z m-30.484-26.414l0.074-0.042v0.084l-0.074-0.042z m-15.046 0.128v-0.084l0.074 0.042-0.074 0.042z m-30.492-26.42l0.08-0.046v0.092l-0.08-0.046z m-15.046 0.136v-0.092l0.08 0.046-0.08 0.046z m-30.486-26.422l0.074-0.042v0.084l-0.074-0.042z m-15.046 0.126v-0.084l0.074 0.042-0.074 0.042z m2.37 51.38l-0.08 0.046v-0.092l0.08 0.046z m45.53 26.288l-0.074 0.042v-0.084l0.074 0.042z m45.532 26.286l-0.074 0.042v-0.084l0.074 0.042z m45.53 26.288l-0.074 0.042v-0.086l0.074 0.044z m45.53 26.286l-0.074 0.042v-0.084l0.074 0.042z m45.532 26.288l-0.074 0.042v-0.084l0.074 0.042zM388.022 553.698l-0.074-0.042 0.074-0.042v0.084z m-43.242 25.13l-0.074-0.042 0.074-0.042v0.084z m349.138 210.304l0.074 0.042-0.074 0.042v-0.084z m43.24-25.13l0.074 0.042-0.074 0.042v-0.084z m43.248-25.132l0.074 0.042-0.074 0.042v-0.084z m-30.412-26.29l-0.074-0.042 0.074-0.042v0.084z m-15.12 0.086v-0.084l0.074 0.042-0.074 0.042z m-30.412-26.372l-0.074-0.042 0.074-0.042v0.084z m-15.118 0.086v-0.084l0.074 0.042-0.074 0.042z m-30.412-26.374l-0.074-0.042 0.074-0.042v0.084z m-15.118 0.086v-0.086l0.074 0.042-0.074 0.044zM613.4 633.718l-0.074-0.042 0.074-0.042v0.084z m-15.118 0.086v-0.084l0.074 0.042-0.074 0.042z m-30.414-26.374l-0.074-0.042 0.074-0.042v0.084z m-15.116 0.086v-0.084l0.074 0.042-0.074 0.042z m-30.412-26.372l-0.08-0.046 0.08-0.046v0.092z m-15.126 0.088v-0.092l0.08 0.046-0.08 0.046z m-30.414-26.38l-0.074-0.042 0.074-0.042v0.084z m-15.118 0.086v-0.084l0.074 0.042-0.074 0.042z m-30.412-26.374l-0.074-0.042 0.074-0.042v0.084z m-15.12 0.086v-0.084l0.074 0.042-0.074 0.042z m-43.248 25.134v-0.084l0.074 0.042-0.074 0.042z m-43.242 25.13v-0.084l0.074 0.042-0.074 0.042z m-43.24 25.128v-0.086l0.074 0.042-0.074 0.044z m15.118-0.17v0.086l-0.074-0.042 0.074-0.044z m30.486 26.414l-0.074 0.042v-0.086l0.074 0.044z m15.046-0.128v0.086l-0.074-0.042 0.074-0.044z m30.492 26.42l-0.082 0.046v-0.094l0.082 0.048z m15.046-0.136v0.092l-0.08-0.046 0.08-0.046z m30.484 26.424l-0.074 0.042v-0.086l0.074 0.044z m15.048-0.13v0.086l-0.074-0.042 0.074-0.044z m30.484 26.418l-0.074 0.042v-0.086l0.074 0.044z m15.046-0.13v0.086l-0.074-0.042 0.074-0.044z m30.486 26.416l-0.076 0.044v-0.084l0.076 0.04z m15.046-0.128v0.086l-0.074-0.042 0.074-0.044z m30.484 26.416l-0.074 0.042v-0.086l0.074 0.044z m15.046-0.128v0.086l-0.074-0.042 0.074-0.044z m30.486 26.416l-0.074 0.042v-0.086l0.074 0.044z m15.046-0.128v0.086l-0.074-0.042 0.074-0.044z m30.484 26.414l-0.074 0.042v-0.086l0.074 0.044z" fill="#57565C" p-id="8291"></path><path d="M459.416 494.72l-0.05 17.432-35.706 20.75 0.05-17.43z" fill="#57565C" p-id="8292"></path><path d="M423.71 515.472l-0.05 17.43-37.946-21.908 0.048-17.43z" fill="#77767E" p-id="8293"></path><path d="M385.762 493.564l35.708-20.75 37.946 21.906-35.706 20.752z" fill="#898890" p-id="8294"></path><path d="M504.946 521.008l-0.048 17.43-35.706 20.752 0.048-17.43z" fill="#57565C" p-id="8295"></path><path d="M469.24 541.76l-0.048 17.43-37.948-21.91 0.05-17.43z" fill="#77767E" p-id="8296"></path><path d="M431.294 519.85L467 499.1l37.946 21.908-35.706 20.752z" fill="#898890" p-id="8297"></path><path d="M550.478 547.298l-0.048 17.43-35.706 20.75 0.048-17.432z" fill="#57565C" p-id="8298"></path><path d="M514.772 568.046l-0.048 17.432-37.948-21.91 0.048-17.43z" fill="#77767E" p-id="8299"></path><path d="M476.824 546.138l35.708-20.75 37.946 21.91-35.706 20.748z" fill="#898890" p-id="8300"></path><path d="M596.016 573.588l-0.048 17.432-35.708 20.748 0.05-17.43z" fill="#57565C" p-id="8301"></path><path d="M560.31 594.338l-0.05 17.43-37.946-21.908 0.05-17.432z" fill="#77767E" p-id="8302"></path><path d="M522.364 572.428l35.706-20.748 37.946 21.908-35.706 20.75z" fill="#898890" p-id="8303"></path><path d="M641.548 599.876l-0.05 17.43-35.706 20.75 0.05-17.43z" fill="#57565C" p-id="8304"></path><path d="M605.842 620.626l-0.05 17.43-37.948-21.91 0.05-17.43z" fill="#77767E" p-id="8305"></path><path d="M567.894 598.716l35.706-20.75 37.948 21.91-35.706 20.75z" fill="#898890" p-id="8306"></path><path d="M687.078 626.162l-0.048 17.432-35.708 20.748 0.05-17.43z" fill="#57565C" p-id="8307"></path><path d="M651.372 646.912l-0.05 17.43-37.946-21.908 0.05-17.43z" fill="#77767E" p-id="8308"></path><path d="M613.426 625.004l35.706-20.75 37.946 21.908-35.706 20.75z" fill="#898890" p-id="8309"></path><path d="M732.61 652.45l-0.048 17.43-35.708 20.75 0.05-17.43z" fill="#57565C" p-id="8310"></path><path d="M696.904 673.2l-0.05 17.43-37.946-21.906 0.05-17.432z" fill="#77767E" p-id="8311"></path><path d="M658.958 651.292l35.706-20.752 37.946 21.91-35.706 20.75z" fill="#898890" p-id="8312"></path><path d="M778.142 678.738l-0.052 17.43-35.704 20.75 0.048-17.432z" fill="#57565C" p-id="8313"></path><path d="M742.434 699.486l-0.048 17.432-37.948-21.908 0.05-17.43z" fill="#77767E" p-id="8314"></path><path d="M704.488 677.58l35.704-20.752 37.95 21.91-35.708 20.748z" fill="#898890" p-id="8315"></path><path d="M823.672 705.024l-0.05 17.432-35.706 20.75 0.05-17.43z" fill="#57565C" p-id="8316"></path><path d="M787.966 725.776l-0.05 17.43-37.948-21.908 0.052-17.432z" fill="#77767E" p-id="8317"></path><path d="M750.02 703.866l35.704-20.75 37.948 21.908-35.706 20.752z" fill="#898890" p-id="8318"></path><path d="M869.202 731.312l-0.05 17.43-35.706 20.752 0.05-17.432z" fill="#57565C" p-id="8319"></path><path d="M833.496 752.062l-0.05 17.432-37.946-21.91 0.048-17.43z" fill="#77767E" p-id="8320"></path><path d="M831.256 709.402l37.946 21.91-35.706 20.75-37.948-21.908z" fill="#898890" p-id="8321"></path><path d="M416.174 519.85l-0.048 17.43-35.714 20.754 0.05-17.43z" fill="#57565C" p-id="8322"></path><path d="M380.462 540.604l-0.05 17.43-37.946-21.906 0.048-17.432z" fill="#77767E" p-id="8323"></path><path d="M342.514 518.696l35.714-20.754 37.946 21.908-35.712 20.754z" fill="#898890" p-id="8324"></path><path d="M461.706 546.138l-0.05 17.43-35.712 20.754 0.048-17.432z" fill="#57565C" p-id="8325"></path><path d="M425.992 566.89l-0.048 17.432-37.948-21.908 0.05-17.43z" fill="#77767E" p-id="8326"></path><path d="M388.046 544.984l35.712-20.756 37.948 21.91-35.714 20.752z" fill="#898890" p-id="8327"></path><path d="M507.238 572.424l-0.05 17.432-35.714 20.754 0.05-17.43z" fill="#57565C" p-id="8328"></path><path d="M471.524 593.18l-0.05 17.43-37.946-21.908 0.048-17.432z" fill="#77767E" p-id="8329"></path><path d="M433.576 571.27l35.714-20.754 37.948 21.908-35.714 20.756z" fill="#898890" p-id="8330"></path><path d="M552.776 598.716l-0.05 17.43-35.714 20.756 0.05-17.43z" fill="#57565C" p-id="8331"></path><path d="M517.062 619.472l-0.05 17.43-37.946-21.908 0.05-17.432z" fill="#77767E" p-id="8332"></path><path d="M479.116 597.562l35.712-20.756 37.948 21.91-35.714 20.756z" fill="#898890" p-id="8333"></path><path d="M598.306 625.004l-0.05 17.43-35.712 20.756 0.05-17.432z" fill="#57565C" p-id="8334"></path><path d="M562.594 645.758l-0.05 17.432-37.948-21.91 0.05-17.43z" fill="#77767E" p-id="8335"></path><path d="M524.646 623.85l35.714-20.754 37.946 21.908-35.712 20.754z" fill="#898890" p-id="8336"></path><path d="M643.838 651.29l-0.05 17.43-35.714 20.756 0.05-17.43z" fill="#57565C" p-id="8337"></path><path d="M608.124 672.046l-0.05 17.43-37.946-21.908 0.05-17.432z" fill="#77767E" p-id="8338"></path><path d="M570.178 650.136l35.712-20.752 37.948 21.906-35.714 20.756z" fill="#898890" p-id="8339"></path><path d="M689.368 677.58l-0.048 17.43-35.714 20.754 0.05-17.432z" fill="#57565C" p-id="8340"></path><path d="M653.656 698.332l-0.05 17.432-37.946-21.91 0.048-17.43z" fill="#77767E" p-id="8341"></path><path d="M615.708 676.424l35.714-20.754 37.946 21.91-35.712 20.752z" fill="#898890" p-id="8342"></path><path d="M734.9 703.866l-0.05 17.432-35.712 20.752 0.048-17.43z" fill="#57565C" p-id="8343"></path><path d="M699.186 724.62l-0.048 17.43-37.948-21.908 0.05-17.432z" fill="#77767E" p-id="8344"></path><path d="M661.24 702.71l35.714-20.752 37.946 21.908-35.714 20.754z" fill="#898890" p-id="8345"></path><path d="M780.432 730.154l-0.05 17.43-35.712 20.754 0.048-17.43z" fill="#57565C" p-id="8346"></path><path d="M744.718 750.908l-0.048 17.43-37.948-21.91 0.05-17.43z" fill="#77767E" p-id="8347"></path><path d="M706.772 728.998l35.712-20.754 37.948 21.91-35.714 20.754z" fill="#898890" p-id="8348"></path><path d="M825.962 756.44l-0.048 17.432-35.716 20.754 0.052-17.432z" fill="#57565C" p-id="8349"></path><path d="M790.25 777.194l-0.052 17.432-37.944-21.908 0.048-17.432z" fill="#77767E" p-id="8350"></path><path d="M752.302 755.286l35.714-20.754 37.946 21.908-35.712 20.754z" fill="#898890" p-id="8351"></path><path d="M372.928 544.984l-0.048 17.43-35.708 20.75 0.05-17.43z" fill="#57565C" p-id="8352"></path><path d="M337.222 565.734l-0.05 17.43-37.946-21.908 0.048-17.43z" fill="#77767E" p-id="8353"></path><path d="M299.274 543.826l35.708-20.752 37.946 21.91-35.706 20.75z" fill="#898890" p-id="8354"></path><path d="M418.458 571.27l-0.05 17.432-35.704 20.748 0.048-17.43z" fill="#57565C" p-id="8355"></path><path d="M382.752 592.02l-0.048 17.43-37.95-21.906 0.052-17.43z" fill="#77767E" p-id="8356"></path><path d="M344.806 570.114l35.704-20.752 37.948 21.908-35.706 20.75z" fill="#898890" p-id="8357"></path><path d="M463.99 597.558l-0.05 17.43-35.708 20.752 0.05-17.43z" fill="#57565C" p-id="8358"></path><path d="M428.282 618.31l-0.05 17.43-37.946-21.908 0.048-17.432z" fill="#77767E" p-id="8359"></path><path d="M390.334 596.4l35.708-20.75 37.948 21.908-35.708 20.752z" fill="#898890" p-id="8360"></path><path d="M509.526 623.85l-0.048 17.43-35.708 20.752 0.05-17.432z" fill="#57565C" p-id="8361"></path><path d="M473.82 644.6l-0.05 17.432-37.946-21.91 0.048-17.43z" fill="#77767E" p-id="8362"></path><path d="M435.872 622.692l35.708-20.752 37.946 21.91L473.82 644.6z" fill="#898890" p-id="8363"></path><path d="M555.058 650.136l-0.05 17.432-35.706 20.75 0.048-17.43z" fill="#57565C" p-id="8364"></path><path d="M519.35 670.888l-0.048 17.43-37.948-21.908 0.05-17.432z" fill="#77767E" p-id="8365"></path><path d="M481.404 648.978l35.708-20.75 37.946 21.908-35.708 20.752z" fill="#898890" p-id="8366"></path><path d="M600.59 676.424l-0.05 17.43-35.708 20.752 0.05-17.43z" fill="#57565C" p-id="8367"></path><path d="M564.882 697.176l-0.05 17.43-37.946-21.91 0.05-17.43z" fill="#77767E" p-id="8368"></path><path d="M526.936 675.266l35.706-20.752 37.948 21.91-35.708 20.752z" fill="#898890" p-id="8369"></path><path d="M646.12 702.71l-0.048 17.432-35.708 20.752 0.05-17.432z" fill="#57565C" p-id="8370"></path><path d="M610.414 723.462l-0.05 17.432-37.946-21.91 0.048-17.43z" fill="#77767E" p-id="8371"></path><path d="M572.466 701.554l35.708-20.752 37.946 21.908-35.706 20.752z" fill="#898890" p-id="8372"></path><path d="M691.652 728.998l-0.05 17.43-35.706 20.752 0.048-17.43z" fill="#57565C" p-id="8373"></path><path d="M655.944 749.75l-0.048 17.43-37.948-21.908 0.05-17.432z" fill="#77767E" p-id="8374"></path><path d="M617.998 727.84l35.708-20.75 37.946 21.908-35.708 20.752z" fill="#898890" p-id="8375"></path><path d="M737.184 755.286l-0.05 17.432-35.706 20.75 0.048-17.432z" fill="#57565C" p-id="8376"></path><path d="M701.476 776.036l-0.048 17.432-37.948-21.91 0.048-17.43z" fill="#77767E" p-id="8377"></path><path d="M663.528 754.128l35.708-20.75 37.948 21.908-35.708 20.75z" fill="#898890" p-id="8378"></path><path d="M782.714 781.574l-0.048 17.432-35.708 20.748 0.05-17.43z" fill="#57565C" p-id="8379"></path><path d="M747.008 802.324l-0.05 17.43-37.946-21.908 0.048-17.432z" fill="#77767E" p-id="8380"></path><path d="M709.06 780.414l35.708-20.748 37.946 21.908-35.706 20.75z" fill="#898890" p-id="8381"></path><path d="M329.686 570.114l-0.05 17.43-35.706 20.75 0.05-17.432z" fill="#57565C" p-id="8382"></path><path d="M293.98 590.862l-0.05 17.432-37.946-21.91 0.048-17.43z" fill="#77767E" p-id="8383"></path><path d="M256.032 568.954l35.708-20.75 37.946 21.91-35.706 20.748z" fill="#898890" p-id="8384"></path><path d="M375.218 596.4l-0.05 17.432-35.706 20.748 0.048-17.43z" fill="#57565C" p-id="8385"></path><path d="M339.51 617.15l-0.048 17.43-37.948-21.908 0.05-17.432z" fill="#77767E" p-id="8386"></path><path d="M301.564 595.24l35.706-20.748 37.948 21.908-35.708 20.75z" fill="#898890" p-id="8387"></path><path d="M420.75 622.688l-0.05 17.43-35.706 20.75 0.048-17.432z" fill="#57565C" p-id="8388"></path><path d="M385.042 643.436l-0.048 17.432-37.948-21.91 0.048-17.43z" fill="#77767E" p-id="8389"></path><path d="M347.094 621.528l35.708-20.75 37.948 21.91-35.708 20.748z" fill="#898890" p-id="8390"></path><path d="M466.286 648.978l-0.048 17.432-35.706 20.748 0.048-17.43z" fill="#57565C" p-id="8391"></path><path d="M430.58 669.728l-0.048 17.43-37.948-21.906 0.05-17.432z" fill="#77767E" p-id="8392"></path><path d="M392.634 647.82l35.706-20.75 37.946 21.908-35.706 20.75z" fill="#898890" p-id="8393"></path><path d="M511.818 675.266l-0.052 17.43-35.704 20.75 0.05-17.43z" fill="#57565C" p-id="8394"></path><path d="M476.112 696.016l-0.05 17.43-37.946-21.906 0.048-17.432z" fill="#77767E" p-id="8395"></path><path d="M438.164 674.108l35.706-20.752 37.948 21.91-35.706 20.75z" fill="#898890" p-id="8396"></path><path d="M557.346 701.554l-0.048 17.43-35.704 20.75 0.048-17.432z" fill="#57565C" p-id="8397"></path><path d="M521.642 722.302l-0.048 17.432-37.95-21.908 0.052-17.43z" fill="#77767E" p-id="8398"></path><path d="M483.696 700.396l35.704-20.752 37.946 21.91-35.704 20.748z" fill="#898890" p-id="8399"></path><path d="M602.878 727.84l-0.048 17.432-35.708 20.75 0.05-17.43z" fill="#57565C" p-id="8400"></path><path d="M567.172 748.592l-0.05 17.43-37.946-21.908 0.05-17.432z" fill="#77767E" p-id="8401"></path><path d="M529.226 726.682l35.706-20.75 37.946 21.908-35.706 20.752z" fill="#898890" p-id="8402"></path><path d="M648.41 754.128l-0.05 17.43-35.706 20.752 0.05-17.432z" fill="#57565C" p-id="8403"></path><path d="M612.704 774.878l-0.05 17.432-37.946-21.91 0.048-17.43z" fill="#77767E" p-id="8404"></path><path d="M574.756 752.97l35.706-20.752 37.948 21.91-35.706 20.75z" fill="#898890" p-id="8405"></path><path d="M693.942 780.414l-0.05 17.432-35.706 20.75 0.05-17.43z" fill="#57565C" p-id="8406"></path><path d="M658.236 801.166l-0.05 17.43-37.948-21.908 0.05-17.43z" fill="#77767E" p-id="8407"></path><path d="M620.288 779.258l35.706-20.752 37.948 21.908-35.706 20.752z" fill="#898890" p-id="8408"></path><path d="M739.472 806.702l-0.048 17.432-35.708 20.75 0.05-17.43z" fill="#57565C" p-id="8409"></path><path d="M703.766 827.454l-0.05 17.43-37.946-21.91 0.05-17.43z" fill="#77767E" p-id="8410"></path><path d="M665.82 805.544l35.706-20.75 37.946 21.908-35.706 20.752z" fill="#898890" p-id="8411"></path><path d="M286.444 595.242l-0.05 17.432-35.706 20.748 0.05-17.43z" fill="#57565C" p-id="8412"></path><path d="M250.738 615.992l-0.05 17.43-37.946-21.908 0.048-17.432z" fill="#77767E" p-id="8413"></path><path d="M212.79 594.082l35.708-20.748 37.946 21.908-35.706 20.75z" fill="#898890" p-id="8414"></path><path d="M331.976 621.53l-0.05 17.43-35.706 20.75 0.048-17.43z" fill="#57565C" p-id="8415"></path><path d="M296.268 642.28l-0.048 17.43-37.948-21.91 0.05-17.43z" fill="#77767E" p-id="8416"></path><path d="M258.322 620.37l35.706-20.75 37.948 21.91-35.708 20.75z" fill="#898890" p-id="8417"></path><path d="M377.506 647.818l-0.048 17.43-35.706 20.75 0.048-17.432z" fill="#57565C" p-id="8418"></path><path d="M341.8 668.566l-0.048 17.432-37.948-21.91 0.048-17.43z" fill="#77767E" p-id="8419"></path><path d="M303.852 646.658l35.708-20.75 37.946 21.91-35.706 20.748z" fill="#898890" p-id="8420"></path><path d="M423.044 674.108l-0.048 17.432-35.708 20.748 0.05-17.43z" fill="#57565C" p-id="8421"></path><path d="M387.338 694.858l-0.05 17.43-37.946-21.908 0.05-17.432z" fill="#77767E" p-id="8422"></path><path d="M349.392 672.948l35.706-20.748 37.946 21.908-35.706 20.75z" fill="#898890" p-id="8423"></path><path d="M468.576 700.396l-0.05 17.43-35.706 20.75 0.05-17.432z" fill="#57565C" p-id="8424"></path><path d="M432.87 721.144l-0.05 17.432-37.946-21.91 0.048-17.43z" fill="#77767E" p-id="8425"></path><path d="M394.922 699.236l35.706-20.75 37.948 21.91-35.706 20.748z" fill="#898890" p-id="8426"></path><path d="M514.106 726.682l-0.048 17.432-35.708 20.748 0.05-17.43z" fill="#57565C" p-id="8427"></path><path d="M478.4 747.432l-0.05 17.43-37.946-21.906 0.05-17.434z" fill="#77767E" p-id="8428"></path><path d="M440.454 725.522l35.706-20.748 37.946 21.908-35.706 20.75z" fill="#898890" p-id="8429"></path><path d="M559.638 752.97l-0.048 17.43-35.708 20.752 0.05-17.432z" fill="#57565C" p-id="8430"></path><path d="M523.932 773.72l-0.05 17.432-37.946-21.91 0.05-17.43z" fill="#77767E" p-id="8431"></path><path d="M485.986 751.812l35.706-20.752 37.946 21.91-35.706 20.75z" fill="#898890" p-id="8432"></path><path d="M605.17 779.258l-0.052 17.43-35.704 20.752 0.05-17.432z" fill="#57565C" p-id="8433"></path><path d="M569.464 800.008l-0.05 17.432-37.948-21.91 0.05-17.43z" fill="#77767E" p-id="8434"></path><path d="M531.516 778.1l35.706-20.752 37.948 21.91-35.706 20.75z" fill="#898890" p-id="8435"></path><path d="M650.7 805.544l-0.05 17.43-35.704 20.752 0.048-17.43z" fill="#57565C" p-id="8436"></path><path d="M614.994 826.296l-0.048 17.43-37.95-21.908 0.052-17.432z" fill="#77767E" p-id="8437"></path><path d="M577.048 804.386l35.704-20.75 37.948 21.908-35.706 20.752z" fill="#898890" p-id="8438"></path><path d="M696.23 831.832l-0.048 17.43-35.708 20.752 0.05-17.432z" fill="#57565C" p-id="8439"></path><path d="M660.524 852.582l-0.05 17.432-37.946-21.91 0.05-17.43z" fill="#77767E" p-id="8440"></path><path d="M622.578 830.674l35.706-20.75 37.946 21.908-35.706 20.75z" fill="#898890" p-id="8441"></path></svg>