<?xml version="1.0" standalone="no"?><!DOCTYPE svg PUBLIC "-//W3C//DTD SVG 1.1//EN" "http://www.w3.org/Graphics/SVG/1.1/DTD/svg11.dtd"><svg t="1556009285181" class="icon" style="" viewBox="0 0 1024 1024" version="1.1" xmlns="http://www.w3.org/2000/svg" p-id="9763" xmlns:xlink="http://www.w3.org/1999/xlink" width="200" height="200"><defs><style type="text/css"></style></defs><path d="M117 608.4v178.5c1.5 93.7 155.7 169.5 395 169.5s393.4-75.8 395-169.5V608.4H117z" fill="#1B9BDB" p-id="9764"></path><path d="M907 607.7c0 99.4-154.8 180-395 180s-395-80.6-395-180 154.8-180 395-180 395 80.5 395 180z" fill="#FFFFFF" p-id="9765"></path><path d="M117 428.4v158.5c1.5 93.7 155.7 179.5 395 179.5s393.4-85.8 395-179.5V428.4H117z" fill="#1B9BDB" p-id="9766"></path><path d="M907 427.7c0 99.4-154.8 180-395 180s-395-80.6-395-180 154.8-180 395-180 395 80.5 395 180z" fill="#FFFFFF" p-id="9767"></path><path d="M117 248.4v158.5c1.5 93.7 155.7 179.5 395 179.5s393.4-85.8 395-179.5V248.4H117z" fill="#1B9BDB" p-id="9768"></path><path d="M907 247.7c0 99.4-154.8 180-395 180s-395-80.6-395-180 154.8-180 395-180 395 80.5 395 180z" fill="#3ED6FF" p-id="9769"></path></svg>