<?xml version="1.0" standalone="no"?><!DOCTYPE svg PUBLIC "-//W3C//DTD SVG 1.1//EN" "http://www.w3.org/Graphics/SVG/1.1/DTD/svg11.dtd"><svg t="1556009249516" class="icon" style="" viewBox="0 0 1024 1024" version="1.1" xmlns="http://www.w3.org/2000/svg" p-id="8792" xmlns:xlink="http://www.w3.org/1999/xlink" width="200" height="200"><defs><style type="text/css"></style></defs><path d="M628.9 935.1L213.8 797.8l165-130 389.1 107.3z" fill="#A1BBC6" p-id="8793"></path><path d="M767.9 775.1V788l-139 161.3v-14.2z" fill="#678289" p-id="8794"></path><path d="M628.9 949.3v-14.2L213.8 797.8v13.9z" fill="#BACCD3" p-id="8795"></path><path d="M600.1 729l157.2 43.3-117 13.4-39.5 19.1z" fill="#8EA8AF" p-id="8796"></path><path d="M404.9 583.2l31.4 173.6 164.5 48-28.9-170.6z" fill="#7C99A3" p-id="8797"></path><path d="M598.6 700l16.5 91-14.3 13.8L581.1 703z" fill="#678289" p-id="8798"></path><path d="M884 792.4L114 584.9v-491l770 162.5z" fill="#37BBEF" p-id="8799"></path><path d="M909 751.9l-25 40.5v-536l26-27.5z" fill="#678289" p-id="8800"></path><path d="M910 228.9L151.4 74.7 114 93.9l770 162.5z" fill="#A1BBC6" p-id="8801"></path><path d="M114 93.9v491l770 207.5v-536L114 93.9z m755.6 616.5l-746-192.5V106l746 161v443.4z" fill="#BACCD3" p-id="8802"></path><path d="M850.8 724.5v17l-39.5-11V714z" fill="#FFFFFF" p-id="8803"></path><path d="M846 727.3v8.9l-29.9-8.4v-8.5z" fill="#113B42" p-id="8804"></path><path d="M787.6 708v17l-39.5-11v-16.5z" fill="#FFFFFF" p-id="8805"></path><path d="M784.1 711.1v9.5l-32.5-9.1v-9z" fill="#113B42" p-id="8806"></path><path d="M853.3 703.6l-213-485.8 229.1 49.3-0.1 441z" fill="#3ED6FF" p-id="8807"></path><path d="M124.9 106v412.8" fill="#3ED6FF" p-id="8808"></path></svg>