<?xml version="1.0" standalone="no"?><!DOCTYPE svg PUBLIC "-//W3C//DTD SVG 1.1//EN" "http://www.w3.org/Graphics/SVG/1.1/DTD/svg11.dtd"><svg t="1556009232307" class="icon" style="" viewBox="0 0 1024 1024" version="1.1" xmlns="http://www.w3.org/2000/svg" p-id="8157" xmlns:xlink="http://www.w3.org/1999/xlink" width="200" height="200"><defs><style type="text/css"></style></defs><path d="M314.328 164.098L95.388 37.692 0 93.124l85.192 147.544v265.246l48 27.714 95.388-55.434V213.928z" fill="#C6C5CB" p-id="8158"></path><path d="M133.192 268.382l95.388-55.432v265.244l-95.388 55.434z" fill="#C6C5CB" p-id="8159"></path><path d="M0 93.124l95.388-55.432 218.94 126.406-95.386 55.432z" fill="#E0E0E2" p-id="8160"></path><path d="M0 93.124l218.942 126.406-85.75 48.852v265.246l-48-27.714V240.67z" fill="#D8D8DA" p-id="8161"></path><path d="M898.78 207.784l-113.104 65.73v29.616l-83.742-48.348-113.104 65.73v29.352l-83.726-48.342L392 367.252v29.882l-83.73-48.34-113.104 65.728-0.114 159.348 125.22 72.296L392 604.482v82.768l125.23 72.302 71.6-41.61v82.686l124.21 72.302 72.636-41.832v82.916l125.22 72.294L1024 920.58V280.08z" fill="#6FB59D" p-id="8162"></path><path d="M320.384 486.816l113.106-65.728-0.114 159.348-113.104 65.73z" fill="#58948E" p-id="8163"></path><path d="M195.166 414.522l113.104-65.728 125.22 72.294-113.106 65.728z" fill="#82CF95" p-id="8164"></path><path d="M320.384 486.816l-0.112 159.35-125.22-72.296 0.114-159.348z" fill="#6FB59D" p-id="8165"></path><path d="M517.23 439.554l113.106-65.73v319.998l-113.106 65.73z" fill="#58948E" p-id="8166"></path><path d="M392 367.252l113.104-65.73 125.232 72.302-113.106 65.73z" fill="#82CF95" p-id="8167"></path><path d="M517.23 439.554v319.998L392 687.25V367.252z" fill="#6FB59D" p-id="8168"></path><path d="M714.064 392.814l113.104-65.73V807.2l-114.128 65.73z" fill="#58948E" p-id="8169"></path><path d="M588.83 320.512l113.104-65.73 125.234 72.302-113.104 65.73z" fill="#82CF95" p-id="8170"></path><path d="M714.064 392.814l-1.024 480.116-124.21-72.302V320.512z" fill="#6FB59D" p-id="8171"></path><path d="M910.896 345.808L1024 280.08v640.5l-113.104 65.728z" fill="#58948E" p-id="8172"></path><path d="M785.676 273.514l113.104-65.73L1024 280.08l-113.104 65.728z" fill="#82CF95" p-id="8173"></path><path d="M910.896 345.808v640.5l-125.22-72.294v-640.5z" fill="#6FB59D" p-id="8174"></path></svg>