<?xml version="1.0" standalone="no"?><!DOCTYPE svg PUBLIC "-//W3C//DTD SVG 1.1//EN" "http://www.w3.org/Graphics/SVG/1.1/DTD/svg11.dtd"><svg t="1556009141034" class="icon" style="" viewBox="0 0 1024 1024" version="1.1" xmlns="http://www.w3.org/2000/svg" p-id="5681" xmlns:xlink="http://www.w3.org/1999/xlink" width="200" height="200"><defs><style type="text/css"></style></defs><path d="M309.7 213.1c-2.1-0.4-4.1-0.7-6.1-1-1.1-0.2-2.3-0.2-3.4-0.3-0.4 0-0.7-0.1-1.1-0.1-0.6-0.1-1.2-0.1-1.8-0.2-2.2-0.2-4.4-0.2-6.6-0.2-2.4 0-4.8 0.1-7.1 0.3h-0.3c-0.2 0-0.4 0.1-0.6 0.1-2.4 0.2-4.8 0.6-7.1 1-2 0.4-3.8 1-5.7 1.6-0.9 0.3-1.9 0.5-2.8 0.8-0.5 0.2-1 0.2-1.4 0.4-4 1.4-7.8 3.2-11.4 5.3l-108.4 63c4-2.3 8.4-4.2 12.9-5.7 0.9-0.3 1.8-0.5 2.8-0.8 4.1-1.2 8.4-2.1 12.8-2.6 0.2 0 0.4-0.1 0.6-0.1 5.1-0.5 10.4-0.5 15.9 0 0.4 0 0.7 0.1 1.1 0.1 5.5 0.6 11.2 1.5 17.1 3.1l108.4-63c-0.6-0.2-1.2-0.3-1.7-0.4-2.2-0.5-4.2-0.9-6.1-1.3z" fill="#FFFFFF" p-id="5682"></path><path d="M149.6 290.2l-7.6-13.1 0.1-0.1 108.3-63c4-2.3 8.3-4.3 12.7-5.8l6.2-1.8c1.6-0.5 3.1-0.9 4.8-1.3 2.5-0.5 5.1-0.8 7.8-1.1 3.9-0.4 6.4-0.5 9.4-0.5 2.2 0 4.4 0.1 6.6 0.2l2.2 0.2 1.4 7.7 0.7-7.5 2.4 0.3c2.2 0.3 4.4 0.7 6.6 1.1 2.1 0.4 4.2 0.9 6.3 1.4l19.1 5.3L209.9 286l-3-0.8c-5.2-1.4-10.5-2.4-15.8-2.9-6-0.6-10.9-0.6-15.5-0.1-4.1 0.4-7.8 1.2-12.1 2.4l-1.2-1.7-1.7 1 0.5 1.4c-4.4 1.3-8.2 3-11.5 4.9z m40-23.2c0.6 0 1.2 0.1 1.8 0.1 6.1 0.6 11.3 1.5 16.3 2.7l87.5-50.9c-1.6-0.1-3-0.1-4.5-0.1-2.2 0-4.4 0.1-6.5 0.3-3 0.4-5.2 0.6-7.3 1-1.2 0.2-2.3 0.6-3.4 0.9l-1.8 0.5-4.8-6.5 2.5 7.1-1.6 0.4c-3.3 1.2-6.7 2.8-9.9 4.6L189.6 267z m109.6-55.4l-1.4 5.8 1.4-0.8v-5z" fill="#0276F7" p-id="5683"></path><path d="M918.7 730.2l-0.3-6v-0.6c0-0.2 0-0.5-0.1-0.7-0.1-1.6-0.2-3.1-0.4-4.7-0.2-2-0.4-4-0.7-6.1 0-0.3-0.1-0.6-0.1-0.9 0-0.3-0.1-0.7-0.1-1l-0.6-4.2c-0.3-2.1-0.7-4.2-1.1-6.3-0.1-0.4-0.2-0.7-0.2-1.1l-0.3-1.2c-0.3-1.3-0.5-2.7-0.8-4-0.5-2.2-1-4.3-1.5-6.5-0.1-0.3-0.2-0.7-0.3-1-0.1-0.4-0.2-0.8-0.3-1.3-0.4-1.4-0.7-2.8-1.1-4.2-0.6-2.2-1.2-4.3-1.9-6.5l-0.3-0.9c-0.1-0.4-0.2-0.7-0.4-1.1-0.5-1.5-0.9-3-1.4-4.4-0.7-2.1-1.4-4.2-2.2-6.2-0.1-0.3-0.2-0.7-0.4-1-0.1-0.4-0.3-0.7-0.4-1.1-0.5-1.3-1-2.7-1.5-4-0.8-2-1.6-3.9-2.4-5.9l-0.6-1.5c-0.2-0.4-0.4-0.9-0.6-1.3-0.4-1-0.9-2.1-1.3-3.1l-2.7-6c-0.3-0.7-0.6-1.3-0.9-1.9-0.3-0.6-0.5-1.1-0.8-1.7-0.5-0.9-0.9-1.9-1.4-2.8-1.2-2.4-2.4-4.7-3.6-7-0.1-0.3-0.3-0.6-0.5-0.8-0.7-1.3-1.5-2.6-2.2-3.9-1.1-2-2.2-4-3.4-6-0.2-0.4-0.5-0.7-0.7-1.1-3-5.1-6.1-10-9.4-14.9-0.2-0.3-0.4-0.6-0.6-1-1.5-2.2-3-4.3-4.5-6.4-0.7-1-1.4-1.9-2.1-2.9-0.1-0.2-0.2-0.3-0.4-0.5-1.7-2.3-3.4-4.5-5.2-6.7-0.6-0.8-1.2-1.5-1.9-2.3-0.4-0.5-0.9-1.1-1.3-1.6-0.5-0.6-1-1.3-1.6-1.9-1.6-1.9-3.1-3.7-4.7-5.5-0.4-0.5-0.9-1-1.3-1.5s-0.8-0.9-1.2-1.4c-0.8-0.8-1.5-1.7-2.3-2.5-1.7-1.8-3.3-3.6-5-5.3l-0.8-0.8c-0.4-0.4-0.8-0.7-1.1-1.1l-3.3-3.3c-1.8-1.7-3.6-3.4-5.4-5l-0.1-0.1c0.2-1.2 0.5-2.4 0.7-3.6 0.5-3 1-6.1 1.4-9.3 0.2-1.8 0.4-3.7 0.6-5.5 0.1-0.6 0.1-1.2 0.2-1.8 0.1-0.6 0.1-1.2 0.2-1.9l0.6-9c0.1-2.9 0.2-5.9 0.2-8.9v-0.5c0-2.9 0-5.8-0.1-8.7-0.1-3.1-0.2-6.2-0.4-9.3-0.1-1.4-0.2-2.9-0.3-4.3 0-0.6-0.1-1.2-0.1-1.8l-0.3-3.3c-0.3-3.1-0.7-6.3-1.1-9.4-0.4-3.2-0.9-6.4-1.4-9.7v-0.3c0-0.1 0-0.3-0.1-0.4-0.5-3-1-6-1.6-9.1-0.6-3.3-1.3-6.7-2-10.1-0.3-1.2-0.6-2.4-0.8-3.6-0.2-0.7-0.3-1.4-0.5-2.1-0.3-1.5-0.7-3-1-4.4-0.8-3.4-1.7-6.8-2.7-10.2-0.7-2.5-1.4-5-2.2-7.5-0.1-0.5-0.3-0.9-0.4-1.4-0.1-0.4-0.3-0.9-0.4-1.3-1-3.3-2.1-6.6-3.2-10-1.1-3.3-2.2-6.6-3.4-9.8-0.2-0.6-0.5-1.2-0.7-1.8l-0.6-1.5c-0.8-2-1.5-4.1-2.3-6.1-1.2-3.1-2.5-6.3-3.8-9.4-0.9-2.2-1.9-4.5-2.9-6.7-0.2-0.4-0.3-0.8-0.5-1.2-0.2-0.4-0.4-0.9-0.6-1.3l-4.2-9.3c-1.6-3.4-3.2-6.8-4.9-10.2-0.3-0.5-0.5-1-0.8-1.5-0.3-0.7-0.7-1.3-1-2-1.4-2.7-2.7-5.4-4.2-8.1-1.8-3.3-3.7-6.6-5.5-9.9-1-1.7-1.9-3.4-2.9-5.1-0.4-0.7-0.7-1.3-1.1-2-1.7-2.9-3.5-5.6-5.3-8.4-2.6-4.2-5.1-8.3-7.8-12.4-0.4-0.6-0.8-1.3-1.2-2-3.9-5.9-8-11.7-12.2-17.3v-0.1c-2.8-3.8-5.7-7.6-8.6-11.3-2.4-3-4.8-6-7.2-8.9 0-0.1-0.1-0.1-0.1-0.2l-0.1-0.1c-2.5-2.9-4.9-5.9-7.5-8.7-2.5-2.8-5-5.6-7.5-8.3-0.4-0.4-0.8-0.9-1.3-1.3-0.4-0.5-0.9-0.9-1.3-1.4-1.8-1.9-3.5-3.8-5.3-5.6-2.7-2.7-5.4-5.4-8.1-8-0.8-0.8-1.7-1.6-2.6-2.4-0.6-0.6-1.3-1.2-1.9-1.8-1.3-1.2-2.7-2.5-4-3.8-2.8-2.6-5.7-5-8.6-7.5-1.3-1.1-2.5-2.1-3.8-3.1-0.6-0.5-1.3-1-1.9-1.6-1-0.8-1.9-1.6-2.9-2.3-2.8-2.2-5.6-4.4-8.5-6.5-2.1-1.5-4.1-3-6.2-4.4-0.4-0.3-0.7-0.5-1.1-0.8-0.4-0.2-0.7-0.5-1.1-0.8-2.7-1.9-5.4-3.7-8.2-5.4-2.7-1.7-5.4-3.4-8.2-5-0.6-0.4-1.3-0.7-1.9-1.1-2-1.2-4.1-2.3-6.1-3.4-2.6-1.4-5.3-2.8-7.9-4.1l-5.1-2.4c-0.4-0.2-0.8-0.4-1.2-0.5-0.5-0.2-1-0.5-1.5-0.7-2.6-1.2-5.1-2.2-7.7-3.3-2.6-1-5.2-2-7.7-2.9-0.5-0.2-0.9-0.3-1.4-0.5-0.4-0.1-0.8-0.3-1.2-0.4-1.7-0.6-3.4-1.2-5.1-1.7-2.6-0.8-5.2-1.5-7.8-2.2-1.3-0.3-2.6-0.6-4-0.9-0.6-0.1-1.1-0.3-1.7-0.4-0.8-0.2-1.6-0.4-2.4-0.5-2.8-0.5-5.5-1-8.3-1.4l-5.4-0.6c-0.6-0.1-1.1-0.1-1.7-0.2-0.5 0-1-0.1-1.6-0.2-3.1-0.2-6.1-0.3-9.1-0.3-1.4 0-2.7 0.1-4.1 0.2-1 0-1.9 0.1-2.8 0.1-0.9 0.1-1.9 0-2.8 0.1-3.8 0.3-7.5 0.9-11.1 1.6-0.1 0-0.2 0.1-0.4 0.1-1.1 0.2-2 0.6-3.1 0.8-3.3 0.8-6.6 1.6-9.8 2.7-0.4 0.1-0.7 0.3-1 0.5-5.2 1.9-10.3 4.1-15.1 6.9L469.1 181c-1.1-1.1-2.3-2.1-3.4-3.2l-0.9-0.9-0.7-0.7-5.1-4.5c-1.2-1-2.4-2-3.6-2.9-0.3-0.2-0.6-0.5-0.9-0.7-0.2-0.2-0.4-0.4-0.7-0.6-1.7-1.3-3.3-2.6-5-3.8-1.5-1.1-3-2.1-4.5-3.2-0.1-0.1-0.2-0.1-0.3-0.2-0.1 0-0.1-0.1-0.2-0.1-1.6-1.1-3.2-2.2-4.8-3.2-1.6-1-3.2-2-4.8-2.9-0.4-0.2-0.7-0.4-1.1-0.6-1.2-0.7-2.4-1.4-3.7-2.1-1.6-0.9-3.2-1.7-4.7-2.4-1-0.5-2-1-3.1-1.4-0.2-0.1-0.5-0.2-0.7-0.3-0.3-0.1-0.6-0.3-0.9-0.4-1.5-0.7-3.1-1.3-4.6-2-1.6-0.6-3.1-1.2-4.7-1.8-0.3-0.1-0.5-0.2-0.8-0.3-0.2-0.1-0.5-0.2-0.7-0.2-1-0.3-2.1-0.7-3.1-1-1.6-0.5-3.2-0.9-4.8-1.3-0.8-0.2-1.5-0.3-2.3-0.5-0.3-0.1-0.7-0.2-1-0.2l-1.5-0.3c-1.7-0.3-3.4-0.6-5-0.8-1-0.1-2-0.2-3.1-0.3-0.4 0-0.7-0.1-1.1-0.1-0.3 0-0.7-0.1-1-0.1-1.8-0.1-3.6-0.2-5.3-0.2-0.8 0-1.6 0.1-2.4 0.1-0.6 0-1.2 0-1.8 0.1-0.6 0-1.2 0-1.8 0.1-2.3 0.2-4.5 0.5-6.7 1h-0.1c-0.5 0.1-1 0.3-1.5 0.4-2.1 0.5-4.3 1-6.3 1.7-0.2 0.1-0.4 0.2-0.5 0.3-3.1 1.1-6.1 2.5-8.9 4.1l-108.4 63c2.8-1.6 5.8-3 8.9-4.1 2.2-0.8 4.5-1.4 6.9-2 0.5-0.1 1-0.3 1.5-0.4 2.8-0.6 5.7-0.9 8.6-1.1 0.6 0 1.2-0.1 1.8-0.1 2.9-0.1 5.8-0.1 8.8 0.2 0.4 0 0.7 0.1 1.1 0.1 3.1 0.3 6.3 0.8 9.5 1.5 0.3 0.1 0.7 0.2 1 0.2 3.3 0.7 6.7 1.7 10.1 2.8 0.2 0.1 0.5 0.2 0.7 0.2 3.6 1.2 7.3 2.7 11 4.4 0.2 0.1 0.5 0.2 0.7 0.3 3.8 1.7 7.6 3.7 11.5 5.9 3.7 2.1 7.3 4.4 10.9 6.9 0.1 0.1 0.2 0.1 0.3 0.2 3.4 2.4 6.8 4.9 10.2 7.6 0.3 0.2 0.6 0.5 0.9 0.7 3.2 2.6 6.3 5.3 9.4 8.1l0.9 0.9c3.2 2.9 6.3 5.9 9.3 9.1l65.3-37.9c2.3-0.3 4.6-0.7 7-0.9 0.9-0.1 1.9-0.1 2.8-0.1 4.8-0.2 9.7-0.1 14.7 0.3 0.6 0 1.1 0.1 1.7 0.2 5.2 0.5 10.5 1.3 16 2.4 0.6 0.1 1.1 0.2 1.7 0.4 5.5 1.2 11.2 2.8 16.9 4.7 0.4 0.1 0.8 0.3 1.2 0.4 6 2.1 12.1 4.5 18.3 7.3 0.4 0.2 0.8 0.4 1.2 0.5 6.3 2.9 12.7 6.2 19.1 9.9 6.5 3.8 13 7.9 19.3 12.3 0.4 0.3 0.7 0.5 1.1 0.8 5.9 4.1 11.8 8.5 17.5 13.2 0.6 0.5 1.3 1 1.9 1.6 5.6 4.6 11 9.3 16.4 14.3 0.6 0.6 1.3 1.2 1.9 1.8 5.5 5.1 10.8 10.5 16 16 0.4 0.5 0.9 0.9 1.3 1.4 5.6 6 11 12.1 16.3 18.5 0 0.1 0.1 0.1 0.1 0.2 5.4 6.5 10.7 13.2 15.8 20.1v0.1c4.6 6.3 9.1 12.7 13.4 19.3 2.7 4 5.2 8.2 7.7 12.3 2.2 3.5 4.4 6.9 6.4 10.5 1 1.7 1.9 3.4 2.8 5 3.4 5.9 6.6 11.9 9.7 18 0.3 0.7 0.7 1.3 1 2 3.7 7.4 7.2 14.8 10.5 22.3 0.2 0.4 0.3 0.8 0.5 1.2 3.2 7.4 6.2 14.8 9 22.2 0.2 0.5 0.4 1 0.5 1.5 2.8 7.6 5.4 15.3 7.7 23 0.1 0.5 0.3 0.9 0.4 1.4 2.2 7.4 4.2 14.7 5.9 22.1 0.2 0.7 0.3 1.4 0.5 2.1 1.7 7.6 3.2 15.2 4.4 22.7 0 0.1 0 0.3 0.1 0.4 1.2 7.6 2.1 15.2 2.7 22.7 0.1 0.6 0.1 1.2 0.1 1.9 0.6 7.5 0.9 14.9 0.9 22.3 0 7-0.4 13.8-1 20.4-0.1 0.6-0.1 1.2-0.2 1.8-0.6 6.4-1.5 12.6-2.6 18.4 3 2.7 5.9 5.5 8.8 8.4l1.1 1.1c2.8 2.8 5.5 5.7 8.1 8.6 0.4 0.5 0.8 0.9 1.2 1.4 2.6 2.9 5.1 5.9 7.6 8.9 0.4 0.5 0.9 1.1 1.3 1.6 2.5 3.1 5 6.3 7.4 9.6 0.7 1 1.4 1.9 2.1 2.9 1.7 2.4 3.5 4.9 5.1 7.3 3.3 4.9 6.4 9.8 9.4 14.9 1.4 2.3 2.7 4.7 4 7 0.7 1.3 1.5 2.6 2.2 4 1.9 3.5 3.7 7.1 5.4 10.7 0.3 0.6 0.5 1.1 0.8 1.7 1.7 3.7 3.4 7.3 5 11 0.2 0.4 0.4 0.8 0.5 1.3 1.6 3.8 3.1 7.6 4.5 11.5 0.1 0.4 0.3 0.7 0.4 1.1 1.4 3.9 2.7 7.8 4 11.7 0.1 0.4 0.2 0.7 0.4 1.1 1.2 3.9 2.3 7.7 3.3 11.6 0.1 0.4 0.2 0.8 0.3 1.3 1 3.8 1.8 7.7 2.6 11.5 0.1 0.4 0.2 0.9 0.3 1.3 0.7 3.8 1.4 7.7 1.9 11.5 0 0.4 0.1 0.7 0.2 1.1 0.5 3.9 0.9 7.8 1.2 11.6 0 0.3 0 0.5 0.1 0.8 0.3 4.1 0.4 8.1 0.4 12.1 0 4.7-0.2 9.2-0.6 13.5 0 0.4-0.1 0.8-0.1 1.2-0.4 4-1 7.8-1.7 11.5l-0.3 1.5c-0.7 3.6-1.6 7-2.6 10.2l-0.6 1.8c-1 3.1-2.2 6-3.4 8.8-0.2 0.3-0.3 0.7-0.4 1-1.5 3.2-3.1 6.1-4.9 8.9-2.5 3.9-5.4 7.4-8.5 10.6-0.8 0.8-1.5 1.5-2.3 2.2-3.2 3-6.6 5.7-10.4 7.9l108.4-63c3.7-2.2 7.2-4.9 10.4-7.9 0.8-0.7 1.5-1.5 2.3-2.2 3.1-3.2 6-6.6 8.5-10.6 0-0.1 0.1-0.1 0.1-0.2 1.7-2.6 3.2-5.5 4.7-8.4 0-0.1 0.1-0.2 0.1-0.3 0.2-0.3 0.3-0.7 0.4-1 0.8-1.8 1.7-3.7 2.4-5.7 0.4-1 0.7-2.1 1-3.1l0.6-1.8c0.2-0.5 0.4-1.1 0.5-1.6 0.6-2 1.1-4.1 1.6-6.3 0.2-0.8 0.3-1.6 0.5-2.4l0.3-1.5c0.1-0.7 0.3-1.5 0.4-2.2 0.3-1.9 0.6-3.9 0.9-5.9 0.1-1.1 0.2-2.3 0.4-3.4 0-0.4 0.1-0.8 0.1-1.1 0-0.5 0.1-0.9 0.1-1.4 0.2-1.9 0.3-3.9 0.4-5.8 0.1-2 0.1-4 0.1-6v-0.4c0.3-2.6 0.3-4.4 0.2-6.3z" fill="#FFFFFF" p-id="5684"></path><path d="M778.2 884.5l-7.6-13.1c2.9-1.7 5.8-3.9 9.1-7l2-2c3.1-3.2 5.6-6.2 7.6-9.3 1.6-2.5 3.1-5.2 4.4-8 1.5-3.5 2.6-6.2 3.5-9l0.6-1.7c1-3 1.8-6.2 2.5-9.5 1-4.9 1.5-8.5 1.9-12.2 0.5-5.3 0.7-9.5 0.7-14 0-3.8-0.1-7.7-0.4-11.6-0.3-4.4-0.7-8.2-1.2-11.9-0.7-4.7-1.3-8.4-2-12.1-1-5-1.8-8.7-2.8-12.4-1.3-5-2.3-8.7-3.5-12.5-1.5-4.8-2.8-8.6-4.2-12.4-1.8-4.8-3.2-8.5-4.8-12.2-2.1-4.8-3.7-8.4-5.4-12l6-4.9-6.8 3.3c-1.7-3.5-3.5-7-5.3-10.4l-2.2-3.9-3.9-6.9c-2.9-4.9-6-9.8-9.2-14.5-1.6-2.4-3.3-4.8-5-7.1l-2-2.8c-2.3-3.2-4.7-6.3-7.2-9.3l-1.3-1.6c-2.4-3-4.9-5.9-7.4-8.7l4.4-6.4-5.6 5.1c-2.6-2.8-5.2-5.6-7.9-8.3-3.9-3.9-6.7-6.6-9.6-9.2l-3.2-2.8 0.8-4.2c1.1-5.7 1.9-11.6 2.5-17.7l7.7-1-7.5-0.7c0.6-6.3 0.9-12.9 0.9-19.7 0-7.1-0.3-14.4-0.9-21.7l-0.1-1.8c-0.6-7.3-1.5-14.7-2.7-22.1-1.2-7.7-2.7-15.1-4.4-22.6l6.9-3.8-7.4 1.7c-1.7-7.2-3.6-14.4-5.8-21.7-2.7-8.9-5.2-16.4-8-23.9l-0.5-1.4c-2.7-7.3-5.6-14.6-8.8-21.8-3.7-8.6-7.2-15.9-10.8-23.1l5.7-5.4-6.7 3.4c-3-5.9-6.3-11.8-9.6-17.7l-2.8-5c-1.4-2.4-2.9-4.8-4.4-7.2l-3.4-5.5c-2-3.3-4-6.5-6.1-9.7-4.3-6.4-8.6-12.8-13.2-19-5-6.8-10.2-13.5-15.5-19.9-5.3-6.4-10.7-12.5-16.2-18.3l4.2-6.5-5.5 5.2c-5.1-5.4-10.4-10.7-15.7-15.7l-1.5-1.4c-5.6-5.2-11-9.9-16.4-14.3l-1.9-1.5c-5.6-4.5-11.3-8.8-17.1-12.9-7.3-5.1-13.5-9.1-19.9-12.7-6.2-3.6-12.4-6.8-18.5-9.6-7.1-3.3-12.9-5.6-18.7-7.6-6.6-2.2-12-3.7-17.3-4.9v-7.7l-1.6 7.4c-5.1-1.1-10.2-1.8-15.1-2.3l-1-7.7-0.6 7.5c-4.7-0.4-9.3-0.4-13.8-0.3l-2.7 0.1c-1.5 0.1-2.9 0.3-4.3 0.5l-0.6 0.1-69.1 40.1-4.1-4.2c-2.9-3-6-5.9-9-8.8-3.9-3.5-6.9-6.1-10-8.6-4-3.2-7.3-5.7-10.6-7.9-3.7-2.5-7.2-4.7-10.7-6.8-3.7-2.1-7.3-4-10.9-5.6-4.1-1.9-7.6-3.3-10.9-4.4-3.8-1.3-7-2.2-10-2.8-3.9-0.8-6.8-1.3-9.7-1.6-3.7-0.3-6.3-0.4-8.8-0.2l-1.8-6.4-0.2 0.1 0.4 6.3c-2.6 0.2-5.2 0.5-7.6 1-3.4 0.8-5.4 1.4-7.3 2.1-2.6 1-5.2 2.1-7.6 3.5l-0.1 0.1-7.6-13.1h0.1l108.4-63c3.2-1.9 6.6-3.4 10.2-4.7 2.9-1.1 5.3-1.7 7.7-2.2 0.7-0.2 1.2-0.4 1.8-0.5 2.5-0.5 5-0.9 7.6-1.1l6.7-0.3c1.9 0 3.9 0.1 5.8 0.2l1.6 7.8 0.6-7.5 3.4 0.3c1.8 0.3 3.6 0.5 5.5 0.9l5.2 1.2c1.7 0.4 3.4 0.9 5.1 1.4l4.9 1.6c1.6 0.6 3.3 1.2 5 1.9 1.6 0.6 3.2 1.3 4.9 2.1l4.9 2.3c1.7 0.9 3.4 1.7 5 2.6l3.8 2.1c2.8 1.6 4.5 2.7 6.1 3.7l5.1 3.3c2.1 1.4 3.6 2.5 5.2 3.7 1.7 1.3 3.5 2.6 5.2 4l5.3 4.4c1.8 1.5 3.5 3 5.3 4.6l1.1 1 30-17.4c4.8-2.8 10.2-5.3 16.3-7.5 4.4-1.7 7.9-2.5 11.3-3.3 2-0.6 2.8-0.8 3.6-1 4.3-0.9 8.3-1.4 12.4-1.8l10.4-0.5c3.2 0 6.4 0.1 9.7 0.3l3.4 0.4c2.4 0.2 4 0.4 5.7 0.6 2.9 0.4 5.8 0.9 8.7 1.5l1.6 0.3-0.7 7.6 2.5-7.2-0.8 7.6 2.9-7.1 3 0.7c2.7 0.7 5.4 1.4 8.1 2.3 1.5 0.4 3 1 4.6 1.5l3.5 1.2c2.6 0.9 5.3 1.9 8 3 2.6 1.1 5.3 2.2 8 3.4l1.5 0.7c2.9 1.4 4.7 2.2 6.5 3.1 2.7 1.3 5.4 2.7 8.1 4.2 2.1 1.2 4.2 2.3 6.3 3.5l1.9 1.1 8.4 5.1c2.8 1.8 5.6 3.6 8.4 5.5l2 1.4c2.4 1.7 4.5 3.2 6.6 4.7l8.7 6.6 8.8 7.2c3 2.5 5.9 5 8.8 7.7l8.7 8.1c2.8 2.7 5.5 5.4 8.3 8.2l4.6 4.8-4.2 6.6 5.5-5.2-4.1 6.7 5.4-5.3c3.4 3.7 6 6.5 8.5 9.4 2.6 2.9 5.1 5.9 7.6 8.9 2.7 3.3 5.2 6.3 7.6 9.4 2.9 3.7 5.9 7.6 8.7 11.4 4.3 5.8 8.4 11.7 12.4 17.7l0.9 1.4c2.7 4.1 4.8 7.6 7 11.1l3.3 5.3c1.1 1.8 2.3 3.5 3.3 5.3l5.3 9.4c1.5 2.6 3 5.2 4.3 7.8l3.8 7.3-5.8 5.2 6.7-3.5-6 4.9 6.7-3.5c2.2 4.4 3.9 7.9 5.5 11.3 1.5 3.1 2.9 6.3 4.3 9.5l4 9.3c1.3 3.2 2.6 6.3 3.8 9.5l2.4 6.3-6.5 4.1 7.1-2.7 0.7 1.9c1.2 3.3 2.4 6.7 3.5 10 1.1 3.4 2.2 6.8 3.3 10.1l3 10.4c1 3.5 1.9 7 2.7 10.5l2.4 10.3 2.1 10.2c0.6 3.1 1.1 6.2 1.6 9.3 0.6 4 1.1 7.3 1.5 10.6 0.4 3.2 0.8 6.4 1.1 9.7l0.2 1.9-7.3 2.9 7.5-0.6 0.4 5.4c0.2 3.2 0.3 6.4 0.5 9.6 0.1 3 0.1 6 0.1 9 0 3.7-0.1 6.7-0.2 9.8-0.1 3.2-0.3 6.3-0.6 9.3l-0.4 3.8-0.6 5.7c-0.4 3.2-0.8 6.2-1.4 9.3 0.8 0.7 1.7 1.6 2.6 2.4l4.6 4.6c2.5 2.5 4.2 4.3 5.9 6.2l1.9 2.1-4.5 6.3 5.6-5.1-4.3 6.5 5.6-5.1c2.4 2.7 4 4.6 5.6 6.5l1.7 2.1-4.6 6.3 5.9-4.8 1.9 2.4c1.8 2.3 3.6 4.6 5.3 7l2.4 3.5c2.1 2.9 3.4 4.7 4.6 6.6 4 6 7.2 11.1 10.2 16.2l6.4 11.3c1.7 3.2 3 5.6 4.2 8l2.2 4.6-5.9 5.2 6.8-3.2c1 2 1.9 4.1 2.8 6.1l1.3 3.1-6.1 4.9 6.9-3 4.9 12.5c1.1 3 1.9 5.2 2.6 7.3l1.2 3.8-6.6 4.1 7.2-2.3c1 3.2 1.6 5.4 2.3 7.6l1.2 4.4-6.9 3.6 7.3-2c0.7 3 1.3 5.2 1.7 7.4l0.7 3.5-7 3.4 7.4-1.5 1.4 7.7 0.5 3.7-7.2 2.7 7.5-1.1c0.4 3.2 0.6 5.3 0.8 7.4l0.4 4.9c0.2 3.4 0.3 5.5 0.4 7.5 0.1 1.9 0.1 3.9 0.1 5.8 0 2.5-0.1 4.6-0.1 6.6-0.1 2.1-0.2 4.1-0.4 6.1l-0.7 6.3c-0.3 2.1-0.6 4.2-0.9 6.2l-0.3 1.7-7.6-0.8 7.1 2.9-0.5 2.5c-0.5 2.4-1.1 4.6-1.8 6.8l-2.3 7c-0.8 2.1-1.7 4.2-2.6 6.2l-0.6 1.4c-1.6 3.3-3.3 6.4-5.1 9.3l-0.7 0.9c-2.7 4.1-5.5 7.5-9 11l-2.5 2.4c-4.2 3.9-8 6.8-11.8 9l-108.3 63zM729 607.8c2 1.9 4 3.8 6 5.8l1.1 1.1c2.8 2.8 5.6 5.8 8.4 8.8l1.3 1.4c2.7 3 5.3 6.1 7.8 9.2l1.4 1.7c2.6 3.2 5.1 6.4 7.5 9.8l1.4 2c2.5 3.5 4.2 6 6 8.5 3.3 5 6.6 10.1 9.6 15.2 1.4 2.4 2.8 4.8 4.1 7.2l2.3 4.1c1.9 3.6 3.8 7.2 5.6 10.9l0.8 1.7c1.8 3.8 3.5 7.5 5.1 11.3 2.2 5.2 3.8 9.1 5.2 13 1.9 5.1 3.2 9.1 4.5 13.1 1.6 5.1 2.7 9.1 3.7 13.1 1.3 5.3 2.2 9.2 3 13.2 1 5.3 1.7 9.3 2.2 13.2 0.7 5.2 1.1 9.2 1.4 13.2 0.3 5 0.5 9.3 0.5 13.4 0 4.9-0.3 9.6-0.7 14.2-0.6 5.5-1.2 9.5-1.9 13.4l-0.3 1.7c-0.8 3.8-1.7 7.5-2.8 11l-0.6 1.7c-1.1 3.2-2.2 6.1-3.4 8.8l70.8-41.1c2.9-1.7 5.8-3.9 9.1-6.9l2-2c3.1-3.1 5.5-6.2 7.6-9.4l1-1.2c0.6-1.3 2.1-3.8 3.3-6.5 1.3-2.9 2-4.6 2.7-6.4l1.8-5.4c0.7-2.5 1.3-4.4 1.7-6.4l7.8-0.7-7.4-1.5 0.5-2.3c0.5-3 0.8-4.8 1.1-6.7l0.3-2.7 7.7-0.9-7.5-0.7c0.3-3.1 0.4-5 0.5-6.8 0.1-1.8 0.1-3.7 0.1-5.7 0-2.1 0-3.9-0.1-5.7-0.1-1.9-0.1-3.8-0.3-5.7l-0.5-5.8c-0.2-1.9-0.4-3.9-0.6-5.8l7.2-2.9-7.5 1-0.6-4.1c-0.3-2-0.7-4-1-6l7.1-3.2-7.4 1.5-0.9-4.5c-0.5-2.1-0.9-4.2-1.5-6.3l6.9-3.6-7.3 1.9-1.2-4.6-1.8-6.3 6.6-4.2-7.2 2.3-1.4-4.3c-0.7-2-1.4-4-2.1-6.1l6.5-4.1-7.1 2.7-4-10.2 6.3-4.4-7.2 2.3-1.6-3.7c-0.8-1.9-1.7-3.8-2.6-5.8l-3-6.3c-1.1-2.3-2.3-4.6-3.5-6.9l-5.9-10.5c-3.6-6-6.6-10.8-9.8-15.6-1.7-2.6-3-4.3-4.2-6l-2.9-4c-2-2.7-3.6-4.9-5.3-7l-3.9-4.9c-2.2-2.7-3.7-4.5-5.3-6.2l4.3-6.5-5.6 5.1-3.4-3.8c-1.6-1.8-3.3-3.5-4.9-5.2l4-6.6-5.3 5.4-3.8-3.7c-1.8-1.7-3.5-3.3-5.3-4.9l-3.1-3.8 1.3-6.7c0.5-3 1-5.9 1.3-9l0.5-5.3 7.6 0.1-7.4-1.8 7.6-0.2-7.4-1.7c0.2-2.9 0.4-5.8 0.5-8.7 0.1-2.8 0.2-5.7 0.2-8.7 0-3.3 0-6.1-0.1-9-0.1-3-0.2-6-0.4-9.1l-0.3-4.1 7.4-2.4-7.5 0.7-0.3-3.2c-0.3-3-0.6-6.1-1-9.2-0.4-3.1-0.8-6.3-1.3-9.4-0.6-3.6-1.1-6.6-1.7-9.6-0.6-3.2-1.3-6.5-2-9.8l-0.8-3.5 7-3.1-7.5 1-1-4.3c-0.8-3.4-1.7-6.7-2.6-10.1l-2.7-9.4c-1.2-3.9-2.2-7.1-3.3-10.4-1.1-3.2-2.2-6.4-3.4-9.7l-0.7-1.8 6.5-4.1-7.1 2.6-2.3-6c-1.2-3.1-2.4-6.1-3.7-9.2l-3.3-7.8c-1.9-4.3-3.3-7.4-4.7-10.4-1.6-3.4-3.2-6.7-4.8-10l6-4.9-6.7 3.4-5.1-9.9c-1.3-2.5-2.7-5-4.1-7.4l-4.1-7.3 5.4-5.8-6.5 3.8-3-4.8-3.5-5.6c-2.1-3.4-4.2-6.8-6.4-10.1l5.1-6.1-6.3 4.2c-3.9-5.8-7.9-11.5-12-17-2.8-3.8-5.6-7.5-8.5-11.1-2.3-3-4.7-5.9-7.1-8.8-2.6-3.2-5.1-6-7.5-8.8-2.4-2.8-4.9-5.5-7.4-8.1l4.3-6.5-5.5 5.2 4.2-6.5-5.5 5.2-5.3-5.5c-2.6-2.7-5.3-5.3-8-7.9l-8.3-7.7c-2.8-2.5-5.6-5-8.4-7.3l-8.4-6.9c-2.7-2.1-5.4-4.2-8.2-6.3-2-1.5-4-2.9-6-4.3l-1.7-1.2c-3-2.1-5.7-3.9-8.4-5.5-2.6-1.7-5.3-3.3-7.9-4.9l-1.9-1.1c-2-1.2-4-2.2-5.9-3.3-2.5-1.3-5.1-2.7-7.6-3.9-1.7-0.8-3.3-1.6-4.9-2.3l-2.1-1c-3-1.3-5.4-2.4-7.9-3.4s-5-1.9-7.4-2.8l0.5-7.8-2.3 7.2-1.5-0.5c-1.4-0.5-2.7-0.9-4.1-1.3-2.6-0.8-5.1-1.5-7.5-2.1l-6.5-1.4c-3.8-0.8-6.4-1.2-8.9-1.5-1.4-0.2-2.8-0.3-4.3-0.4l-3.4-0.4c-3.3-0.2-6.2-0.3-9-0.3l-6.4 0.3-3.3-7.4 0.7 7.5c-3.5 0.3-7 0.8-10.4 1.5l-3.1 0.9c-3.3 0.8-6.3 1.5-9.1 2.4-6.2 2.4-10.7 4.4-14.8 6.8L468 190.4l-8.8-8.3c-1.9-1.7-3.5-3.1-5.2-4.5l-4.7-3.8c-1.9-1.5-3.5-2.7-5.1-3.9-1.4-1.1-2.9-2.1-4.3-3.1-2-1.4-3.5-2.4-5.1-3.4-1.5-0.9-3-1.9-4.5-2.8l-4.6-2.6c-1.5-0.8-3-1.6-4.5-2.3l-4.1-1.9c-1.7-0.8-3.1-1.4-4.5-1.9-1.5-0.6-3-1.2-4.4-1.7l-4.3-1.4c-1.5-0.4-2.9-0.9-4.4-1.2l-0.5-7.9-1.6 7.4-1.7-0.4c-2.1-0.4-3.7-0.7-5.2-0.9l-4.5-0.5c-1.8-0.1-3.4-0.2-5-0.2l-2.4-7.4 0.2 7.6-1.6 0.1c-3.5 0.3-5.5 0.5-7.4 0.9l-3.2-6.9 1.7 7.4c-1.8 0.4-3.7 0.9-5.4 1.5-3.2 1.2-5.8 2.4-8.2 3.8l-71.9 41.8c3.1 0.4 5.7 0.8 8.4 1.4 4.6 1 8.3 2.1 12 3.3 4.6 1.6 8.5 3.1 12.4 4.9 4.7 2.2 8.7 4.3 12.8 6.6 3.9 2.2 7.7 4.6 11.4 7.2 3.9 2.7 7.4 5.3 10.9 8.1 4.2 3.4 7.5 6.2 10.7 9.1 2.4 2.2 4.5 4.2 6.4 6l65-36.2c1.8-0.3 3.7-0.5 5.6-0.7l3.1-0.1c5-0.2 10.2-0.1 15.6 0.3l1.8 0.2c5.5 0.5 11.1 1.4 16.8 2.6l1.8 0.4c5.8 1.3 11.7 2.9 17.7 4.9 7.5 2.6 13.9 5.1 20.2 8 7.7 3.6 14.2 7 20.9 10.8 6.7 3.9 13.3 8.1 19.8 12.6 7.2 5.1 13.2 9.6 19.1 14.3l2 1.7c5.6 4.6 11.2 9.5 16.7 14.6l2 1.9c5.5 5.2 10.9 10.6 16.3 16.2l1.3 1.4c5.7 6.1 11.2 12.3 16.6 18.8 5.6 6.8 11 13.6 16.2 20.6 4.7 6.4 9.3 13 13.7 19.7 2.2 3.3 4.3 6.7 6.4 10.1l3.4 5.4c1.6 2.5 3.2 5.1 4.7 7.7l2.9 5.1c3.4 6 6.7 12.1 9.9 18.2l-5.7 5.4 6.7-3.4c3.8 7.5 7.3 15.1 10.7 22.7 3.8 8.7 6.8 16.3 9.6 23.8l0.6 1.5c2.8 7.7 5.5 15.5 7.8 23.4 2.6 8.9 4.7 16.4 6.4 23.9l0.5 2.2c1.8 7.7 3.3 15.5 4.5 23.2 1.3 8.2 2.2 15.9 2.9 23.6l0.2 2c0.6 7.6 0.9 15.3 0.9 22.8 0 7.2-0.4 14.3-1 21l-0.2 1.8c-0.8 5-1.4 10-2.2 14.9z" fill="#0276F7" p-id="5685"></path><path d="M532.4 237.1C638.9 298.6 724.9 447.6 724.6 570c0 14.6-1.4 28.2-3.8 40.6 51.8 46.6 89.8 123.3 89.6 188.3-0.2 78.3-55.6 109.9-123.8 70.5L244.3 614c-77-44.5-139.4-152.4-139.1-241 0.2-74.2 44.2-110.9 103.7-95.1 2.5-69.8 53.4-97.4 115.8-61.4 14.8 8.6 29 20 41.9 33.4 33.7-45.4 95.3-53.5 165.8-12.8z" fill="#D4E4FC" p-id="5686"></path><path d="M742 893.9c-18.3 0-38.5-6.1-59.2-18L240.5 620.5C161.5 574.9 97.4 463.8 97.6 373c0.1-40.4 13.1-72.6 36.5-90.5 18.4-14.1 41.6-18.8 67.8-13.9 3.1-31.6 16.4-55.3 37.9-67.2C264 188 295.5 191 328.4 210c12.9 7.4 25.5 17 37.5 28.6 38.2-43.8 102.5-47.2 170.2-8.1 108.4 62.6 196.3 214.9 196 339.4 0 13.1-1.1 25.8-3.1 37.8 52.7 49.2 89.1 127.1 89 191.1-0.1 40.6-14.3 71-40 85.8-10.8 6.2-22.9 9.3-36 9.3zM182.6 281.8c-15 0-28.3 4.3-39.2 12.6-19.6 15-30.5 42.9-30.6 78.6-0.2 86 60.5 191.2 135.3 234.4l442.3 255.4c30.7 17.7 59.1 20.8 80 8.7 20.8-12 32.3-37.8 32.4-72.7 0.2-61.2-35.6-136.3-87.1-182.7l-3.2-2.9 0.8-4.2c2.4-12.2 3.6-25.4 3.6-39.2 0.3-119.8-84.2-266.1-188.4-326.3-64.8-37.4-123.1-33.4-156 10.8l-5.3 7.1-6.2-6.4c-12.9-13.3-26.4-24.1-40.3-32.1-28.1-16.2-54.3-19.2-73.7-8.5-18.8 10.4-29.7 33-30.8 63.6l-0.3 9.5-9.2-2.4c-8.3-2.2-16.4-3.3-24.1-3.3z" fill="#0276F7" p-id="5687"></path><path d="M720.8 618.1c-2.6 0-5.1-1.3-6.5-3.7-2.1-3.6-0.9-8.2 2.7-10.3l89.6-52.3c3.6-2.1 8.2-0.9 10.3 2.7 2.1 3.6 0.9 8.2-2.7 10.3L724.6 617c-1.2 0.7-2.5 1.1-3.8 1.1zM395.39 215.27l69.832-40.84 7.623 13.035-69.833 40.838z" fill="#0276F7" p-id="5688"></path></svg>