<?xml version="1.0" standalone="no"?><!DOCTYPE svg PUBLIC "-//W3C//DTD SVG 1.1//EN" "http://www.w3.org/Graphics/SVG/1.1/DTD/svg11.dtd"><svg t="1556009305590" class="icon" style="" viewBox="0 0 1175 1024" version="1.1" xmlns="http://www.w3.org/2000/svg" p-id="10397" xmlns:xlink="http://www.w3.org/1999/xlink" width="229.4921875" height="200"><defs><style type="text/css"></style></defs><path d="M0 796.444444h1175.703704v227.555556H0z" fill="#1A8FFF" p-id="10398"></path><path d="M252.207407 379.259259h673.185186c13.274074 0 24.651852 5.688889 32.237037 17.066667L1175.703704 796.444444H0l218.074074-400.118518c7.585185-11.377778 20.859259-17.066667 34.133333-17.066667z" fill="#027AEC" p-id="10399"></path><path d="M75.851852 834.37037h1024c11.377778 0 18.962963 7.585185 18.962963 18.962963v113.777778c0 11.377778-7.585185 18.962963-18.962963 18.962963H75.851852c-11.377778 0-18.962963-7.585185-18.962963-18.962963v-113.777778c0-11.377778 7.585185-18.962963 18.962963-18.962963z" fill="#0072DF" p-id="10400"></path><path d="M123.259259 872.296296h18.962963c5.688889 0 9.481481 3.792593 9.481482 9.481482v56.888889c0 5.688889-3.792593 9.481481-9.481482 9.481481h-18.962963c-5.688889 0-9.481481-3.792593-9.481481-9.481481v-56.888889c0-5.688889 3.792593-9.481481 9.481481-9.481482z m75.851852 0h18.962963c5.688889 0 9.481481 3.792593 9.481482 9.481482v56.888889c0 5.688889-3.792593 9.481481-9.481482 9.481481h-18.962963c-5.688889 0-9.481481-3.792593-9.481481-9.481481v-56.888889c0-5.688889 3.792593-9.481481 9.481481-9.481482z m75.851852 0h18.962963c5.688889 0 9.481481 3.792593 9.481481 9.481482v56.888889c0 5.688889-3.792593 9.481481-9.481481 9.481481h-18.962963c-5.688889 0-9.481481-3.792593-9.481482-9.481481v-56.888889c0-5.688889 3.792593-9.481481 9.481482-9.481482z m75.851852 0h18.962963c5.688889 0 9.481481 3.792593 9.481481 9.481482v56.888889c0 5.688889-3.792593 9.481481-9.481481 9.481481h-18.962963c-5.688889 0-9.481481-3.792593-9.481482-9.481481v-56.888889c0-5.688889 3.792593-9.481481 9.481482-9.481482z m75.851852 0h18.962963c5.688889 0 9.481481 3.792593 9.481481 9.481482v56.888889c0 5.688889-3.792593 9.481481-9.481481 9.481481h-18.962963c-5.688889 0-9.481481-3.792593-9.481482-9.481481v-56.888889c0-5.688889 3.792593-9.481481 9.481482-9.481482z m75.851852 0h18.962962c5.688889 0 9.481481 3.792593 9.481482 9.481482v56.888889c0 5.688889-3.792593 9.481481-9.481482 9.481481h-18.962962c-5.688889 0-9.481481-3.792593-9.481482-9.481481v-56.888889c0-5.688889 3.792593-9.481481 9.481482-9.481482z m75.851851 0h18.962963c5.688889 0 9.481481 3.792593 9.481482 9.481482v56.888889c0 5.688889-3.792593 9.481481-9.481482 9.481481h-18.962963c-5.688889 0-9.481481-3.792593-9.481481-9.481481v-56.888889c0-5.688889 3.792593-9.481481 9.481481-9.481482z m75.851852 0h18.962963c5.688889 0 9.481481 3.792593 9.481482 9.481482v56.888889c0 5.688889-3.792593 9.481481-9.481482 9.481481h-18.962963c-5.688889 0-9.481481-3.792593-9.481481-9.481481v-56.888889c0-5.688889 3.792593-9.481481 9.481481-9.481482z m75.851852 0h18.962963c5.688889 0 9.481481 3.792593 9.481482 9.481482v56.888889c0 5.688889-3.792593 9.481481-9.481482 9.481481h-18.962963c-5.688889 0-9.481481-3.792593-9.481481-9.481481v-56.888889c0-5.688889 3.792593-9.481481 9.481481-9.481482z m75.851852 0h18.962963c5.688889 0 9.481481 3.792593 9.481481 9.481482v56.888889c0 5.688889-3.792593 9.481481-9.481481 9.481481h-18.962963c-5.688889 0-9.481481-3.792593-9.481482-9.481481v-56.888889c0-5.688889 3.792593-9.481481 9.481482-9.481482z m75.851852 0h18.962963c5.688889 0 9.481481 3.792593 9.481481 9.481482v56.888889c0 5.688889-3.792593 9.481481-9.481481 9.481481h-18.962963c-5.688889 0-9.481481-3.792593-9.481482-9.481481v-56.888889c0-5.688889 3.792593-9.481481 9.481482-9.481482z m75.851852 0h18.962963c5.688889 0 9.481481 3.792593 9.481481 9.481482v56.888889c0 5.688889-3.792593 9.481481-9.481481 9.481481h-18.962963c-5.688889 0-9.481481-3.792593-9.481482-9.481481v-56.888889c0-5.688889 3.792593-9.481481 9.481482-9.481482z m75.851851 0h18.962963c5.688889 0 9.481481 3.792593 9.481482 9.481482v56.888889c0 5.688889-3.792593 9.481481-9.481482 9.481481h-18.962963c-5.688889 0-9.481481-3.792593-9.481481-9.481481v-56.888889c0-5.688889 3.792593-9.481481 9.481481-9.481482z" fill="#7FC0FF" p-id="10401"></path><path d="M37.925926 417.185185h1099.851852v227.555556H37.925926z" fill="#1A8FFF" p-id="10402"></path><path d="M290.133333 0h597.333334c13.274074 0 24.651852 5.688889 32.237037 17.066667L1137.777778 417.185185H37.925926L256 17.066667c7.585185-11.377778 20.859259-17.066667 34.133333-17.066667z" fill="#027AEC" p-id="10403"></path><path d="M94.814815 455.111111h986.074074c11.377778 0 18.962963 7.585185 18.962963 18.962963v113.777778c0 11.377778-7.585185 18.962963-18.962963 18.962963H94.814815c-11.377778 0-18.962963-7.585185-18.962963-18.962963v-113.777778c0-11.377778 7.585185-18.962963 18.962963-18.962963z" fill="#0072DF" p-id="10404"></path><path d="M161.185185 493.037037h18.962963c5.688889 0 9.481481 3.792593 9.481482 9.481482v56.888888c0 5.688889-3.792593 9.481481-9.481482 9.481482h-18.962963c-5.688889 0-9.481481-3.792593-9.481481-9.481482v-56.888888c0-5.688889 3.792593-9.481481 9.481481-9.481482z m75.851852 0h18.962963c5.688889 0 9.481481 3.792593 9.481481 9.481482v56.888888c0 5.688889-3.792593 9.481481-9.481481 9.481482h-18.962963c-5.688889 0-9.481481-3.792593-9.481481-9.481482v-56.888888c0-5.688889 3.792593-9.481481 9.481481-9.481482z m75.851852 0h18.962963c5.688889 0 9.481481 3.792593 9.481481 9.481482v56.888888c0 5.688889-3.792593 9.481481-9.481481 9.481482h-18.962963c-5.688889 0-9.481481-3.792593-9.481482-9.481482v-56.888888c0-5.688889 3.792593-9.481481 9.481482-9.481482z m75.851852 0h18.962963c5.688889 0 9.481481 3.792593 9.481481 9.481482v56.888888c0 5.688889-3.792593 9.481481-9.481481 9.481482h-18.962963c-5.688889 0-9.481481-3.792593-9.481482-9.481482v-56.888888c0-5.688889 3.792593-9.481481 9.481482-9.481482z m75.851852 0h18.962963c5.688889 0 9.481481 3.792593 9.481481 9.481482v56.888888c0 5.688889-3.792593 9.481481-9.481481 9.481482h-18.962963c-5.688889 0-9.481481-3.792593-9.481482-9.481482v-56.888888c0-5.688889 3.792593-9.481481 9.481482-9.481482z m75.851851 0h18.962963c5.688889 0 9.481481 3.792593 9.481482 9.481482v56.888888c0 5.688889-3.792593 9.481481-9.481482 9.481482h-18.962963c-5.688889 0-9.481481-3.792593-9.481481-9.481482v-56.888888c0-5.688889 3.792593-9.481481 9.481481-9.481482z m75.851852 0h18.962963c5.688889 0 9.481481 3.792593 9.481482 9.481482v56.888888c0 5.688889-3.792593 9.481481-9.481482 9.481482h-18.962963c-5.688889 0-9.481481-3.792593-9.481481-9.481482v-56.888888c0-5.688889 3.792593-9.481481 9.481481-9.481482z m75.851852 0h18.962963c5.688889 0 9.481481 3.792593 9.481482 9.481482v56.888888c0 5.688889-3.792593 9.481481-9.481482 9.481482h-18.962963c-5.688889 0-9.481481-3.792593-9.481481-9.481482v-56.888888c0-5.688889 3.792593-9.481481 9.481481-9.481482z m75.851852 0h18.962963c5.688889 0 9.481481 3.792593 9.481481 9.481482v56.888888c0 5.688889-3.792593 9.481481-9.481481 9.481482h-18.962963c-5.688889 0-9.481481-3.792593-9.481481-9.481482v-56.888888c0-5.688889 3.792593-9.481481 9.481481-9.481482z m75.851852 0h18.962963c5.688889 0 9.481481 3.792593 9.481481 9.481482v56.888888c0 5.688889-3.792593 9.481481-9.481481 9.481482h-18.962963c-5.688889 0-9.481481-3.792593-9.481482-9.481482v-56.888888c0-5.688889 3.792593-9.481481 9.481482-9.481482z m75.851852 0h18.962963c5.688889 0 9.481481 3.792593 9.481481 9.481482v56.888888c0 5.688889-3.792593 9.481481-9.481481 9.481482h-18.962963c-5.688889 0-9.481481-3.792593-9.481482-9.481482v-56.888888c0-5.688889 3.792593-9.481481 9.481482-9.481482z m75.851852 0h18.962963c5.688889 0 9.481481 3.792593 9.481481 9.481482v56.888888c0 5.688889-3.792593 9.481481-9.481481 9.481482h-18.962963c-5.688889 0-9.481481-3.792593-9.481482-9.481482v-56.888888c0-5.688889 3.792593-9.481481 9.481482-9.481482z" fill="#7FC0FF" p-id="10405"></path></svg>