<?xml version="1.0" standalone="no"?><!DOCTYPE svg PUBLIC "-//W3C//DTD SVG 1.1//EN" "http://www.w3.org/Graphics/SVG/1.1/DTD/svg11.dtd"><svg t="1556009164492" class="icon" style="" viewBox="0 0 1024 1024" version="1.1" xmlns="http://www.w3.org/2000/svg" p-id="6246" xmlns:xlink="http://www.w3.org/1999/xlink" width="200" height="200"><defs><style type="text/css"></style></defs><path d="M395 952.9c-1.2 0-2.3-0.3-3.4-0.9L152.5 820.3c-2.2-1.2-3.6-3.6-3.6-6.1V271.6c0-2.4 1.3-4.7 3.4-6L470.6 72.2c1.1-0.7 2.4-1 3.6-1 1.2 0 2.4 0.3 3.4 0.9l241.6 136.3c2.2 1.2 3.5 3.6 3.5 6.1v550.7c0 2.5-1.4 4.8-3.6 6.1L398.4 952c-1.1 0.6-2.2 0.9-3.4 0.9z" fill="#B5D6FB" p-id="6247"></path><path d="M474.2 78.1l241.6 136.3v550.7L395 945.9 155.9 814.2V271.6L474.2 78.1m0-13.9c-2.5 0-5 0.7-7.3 2L148.7 259.6c-4.2 2.5-6.7 7.1-6.7 11.9v542.6c0 5.1 2.8 9.8 7.2 12.2L388.3 958c2.1 1.2 4.4 1.7 6.7 1.7 2.4 0 4.7-0.6 6.9-1.8l320.9-180.8c4.4-2.5 7.1-7.1 7.1-12.2V214.5c0-5-2.7-9.7-7.1-12.2L481.1 66c-2.1-1.2-4.5-1.8-6.9-1.8z" fill="#0276F7" p-id="6248"></path><path d="M474.2 78.1L155.9 271.6l239.1 130 320.9-187.1z" fill="#FFFFFF" p-id="6249"></path><path d="M395 914.5V401.6" fill="#B5D6FB" p-id="6250"></path><path d="M395 921.4c-3.9 0-7-3.1-7-7V401.6c0-3.9 3.1-7 7-7s7 3.1 7 7v512.9c0 3.8-3.2 6.9-7 6.9z" fill="#0276F7" p-id="6251"></path><path d="M677.4 236.9L395 401.6" fill="#B5D6FB" p-id="6252"></path><path d="M395 408.5c-2.4 0-4.7-1.2-6-3.5-1.9-3.3-0.8-7.6 2.5-9.6l282.4-164.7c3.3-1.9 7.6-0.8 9.5 2.5 2 3.3 0.8 7.6-2.5 9.6L398.5 407.6c-1.1 0.6-2.3 0.9-3.5 0.9z" fill="#0276F7" p-id="6253"></path><path d="M186.3 288.1L395 401.6" fill="#B5D6FB" p-id="6254"></path><path d="M395 408.5c-1.1 0-2.3-0.3-3.3-0.8L183 294.2c-3.4-1.8-4.6-6.1-2.8-9.5 1.8-3.4 6.1-4.6 9.5-2.8l208.7 113.5c3.4 1.8 4.6 6.1 2.8 9.5-1.4 2.3-3.8 3.6-6.2 3.6z" fill="#0276F7" p-id="6255"></path><path d="M183.1 741.2l176.5 98.9" fill="#B5D6FB" p-id="6256"></path><path d="M359.5 847.1c-1.2 0-2.3-0.3-3.4-0.9l-176.4-98.9c-3.4-1.9-4.6-6.1-2.7-9.5 1.9-3.4 6.1-4.6 9.5-2.7L363 834c3.4 1.9 4.6 6.1 2.7 9.5-1.3 2.3-3.7 3.6-6.2 3.6z" fill="#0276F7" p-id="6257"></path><path d="M183.1 691.7l176.5 98.9" fill="#B5D6FB" p-id="6258"></path><path d="M359.5 797.6c-1.2 0-2.3-0.3-3.4-0.9l-176.4-98.9c-3.4-1.9-4.6-6.1-2.7-9.5 1.9-3.4 6.1-4.6 9.5-2.7L363 784.5c3.4 1.9 4.6 6.1 2.7 9.5-1.3 2.3-3.7 3.6-6.2 3.6z" fill="#0276F7" p-id="6259"></path><path d="M183.1 642.3l176.5 98.9" fill="#B5D6FB" p-id="6260"></path><path d="M359.5 748.2c-1.2 0-2.3-0.3-3.4-0.9l-176.4-98.9c-3.4-1.9-4.6-6.1-2.7-9.5 1.9-3.4 6.1-4.6 9.5-2.7L363 735.1c3.4 1.9 4.6 6.1 2.7 9.5-1.3 2.3-3.7 3.6-6.2 3.6z" fill="#0276F7" p-id="6261"></path><path d="M147.7 538.8L395 673.7" fill="#B5D6FB" p-id="6262"></path><path d="M144.404 544.868l6.707-12.29 247.277 134.963-6.708 12.29z" fill="#0276F7" p-id="6263"></path><path d="M317.4 431l40.1 20" fill="#B5D6FB" p-id="6264"></path><path d="M357.5 458c-1.1 0-2.1-0.2-3.1-0.7l-40.1-20c-3.5-1.7-4.8-5.9-3.1-9.4 1.7-3.5 5.9-4.8 9.4-3.1l40.1 20c3.5 1.7 4.8 5.9 3.1 9.4-1.3 2.4-3.8 3.8-6.3 3.8z" fill="#0276F7" p-id="6265"></path><path d="M786.5 545.5l-0.6-0.3c-1.8-1-3.6-1.9-5.5-2.7-0.3-0.1-0.7-0.2-1.1-0.4-0.6-0.2-1.2-0.4-1.9-0.7-0.9-0.3-1.9-0.7-2.8-1-1-0.3-2.1-0.5-3.1-0.7-0.6-0.1-1.3-0.3-1.9-0.4-0.4-0.1-0.7-0.2-1-0.2-2.1-0.4-4.3-0.6-6.6-0.8h-2c-1.7-0.1-3.4-0.1-5.2 0-0.6 0-1.2 0.1-1.8 0.2l-3.3 0.3c-1 0.1-2 0.1-3.1 0.3-0.9 0.1-1.8 0.4-2.7 0.6-1.5 0.3-3 0.6-4.5 1-0.8 0.2-1.6 0.3-2.4 0.5-0.8 0.2-1.6 0.6-2.4 0.8-2.5 0.8-5.1 1.6-7.7 2.6-0.9 0.4-1.8 0.6-2.7 0.9-0.5 0.2-1 0.6-1.6 0.8-4.5 1.9-9 4.1-13.7 6.8-3.5 2-7 4.2-10.4 6.6l-3.3 2.4c-2.3 1.7-4.6 3.4-6.8 5.2-1.3 1-2.5 2-3.7 3.1-2.1 1.7-4.1 3.5-6.1 5.4-1.2 1.1-2.5 2.3-3.7 3.4-0.8 0.7-1.5 1.4-2.3 2.1-0.8 0.8-1.5 1.7-2.3 2.5-2.5 2.5-4.9 5.1-7.2 7.7-0.8 0.8-1.6 1.6-2.3 2.5-0.6 0.7-1.2 1.5-1.8 2.2-1.4 1.7-2.8 3.4-4.3 5.2-0.9 1.1-1.9 2.2-2.7 3.3-0.7 1-1.4 2-2.2 2.9-1 1.4-2 2.7-3 4.1-0.7 0.9-1.4 1.9-2.1 2.8-1.1 1.6-2.2 3.3-3.3 5-0.7 1-1.4 2.1-2.1 3.1-0.3 0.4-0.6 0.9-0.9 1.3-1.9 3-3.8 6.1-5.6 9.2-0.1 0.2-0.2 0.4-0.4 0.6-0.4 0.6-0.7 1.3-1 1.9-1.3 2.2-2.5 4.4-3.7 6.7-0.6 1-1.1 2.1-1.6 3.1-0.6 1.1-1.1 2.2-1.7 3.3-0.5 1-1 1.9-1.5 2.9-1.2 2.5-2.4 5.1-3.5 7.6-0.2 0.5-0.4 0.9-0.6 1.4-0.1 0.1-0.1 0.3-0.2 0.4-1.4 3.2-2.7 6.5-4 9.8l-0.6 1.8c-0.4 1.2-0.9 2.4-1.3 3.6-0.6 1.6-1.2 3.3-1.8 4.9-0.4 1.3-0.8 2.5-1.2 3.8-0.5 1.5-0.9 3-1.4 4.5-0.3 0.9-0.6 1.9-0.9 2.8-0.5 1.7-0.8 3.3-1.2 5-0.5 1.9-0.9 3.7-1.4 5.6-0.1 0.7-0.3 1.3-0.5 2-0.3 1.3-0.4 2.7-0.7 4-0.6 2.9-1.1 5.8-1.5 8.6-0.1 0.8-0.3 1.6-0.4 2.4-0.1 0.8-0.1 1.5-0.1 2.2-0.7 6.4-1.3 12.8-1.2 19 0.1 34.3 12.2 58.5 31.8 69.9l56.9 33.1c-19.6-11.4-31.7-35.5-31.8-69.9 0-6.2 0.5-12.6 1.2-19 0.2-1.5 0.3-3.1 0.6-4.6 0.4-2.9 0.9-5.7 1.5-8.6 0.4-2 0.7-4 1.2-6 0.4-1.8 0.9-3.7 1.4-5.5 0.7-2.6 1.3-5.2 2.1-7.8 0.4-1.5 0.9-3 1.4-4.5 0.9-2.9 1.9-5.8 2.9-8.7 0.4-1.2 0.8-2.4 1.3-3.5 1.5-4 3.1-8 4.8-12 0.2-0.5 0.4-0.9 0.6-1.4 1.6-3.5 3.2-7 5-10.5 0.5-1.1 1.1-2.2 1.7-3.3 1.7-3.3 3.5-6.6 5.3-9.8 0.4-0.6 0.7-1.3 1-1.9 2.2-3.8 4.5-7.5 6.9-11.2 0.7-1.1 1.4-2.1 2.1-3.2 1.8-2.6 3.5-5.2 5.4-7.8 1-1.4 2-2.8 3-4.1 1.6-2.1 3.3-4.2 4.9-6.3l4.2-5.1c1.4-1.6 2.8-3.2 4.2-4.7 2.4-2.6 4.8-5.2 7.2-7.7 1.5-1.6 3.1-3.1 4.6-4.6 1.2-1.2 2.4-2.3 3.6-3.4 2-1.9 4.1-3.6 6.2-5.4 1.2-1 2.4-2.1 3.7-3.1 2.3-1.8 4.6-3.5 6.9-5.2l3.3-2.4c3.4-2.3 6.9-4.6 10.4-6.6 4.6-2.7 9.2-4.9 13.7-6.8 1.4-0.6 2.9-1.2 4.3-1.7 2.6-1 5.1-1.9 7.7-2.6 1.6-0.5 3.3-1 4.8-1.4 1.5-0.4 3-0.7 4.5-1 2-0.4 3.9-0.7 5.8-0.9 1.1-0.1 2.2-0.3 3.2-0.3 2.4-0.2 4.7-0.2 7-0.1h1.6c2.8 0.2 5.4 0.5 8 1 0.7 0.1 1.3 0.3 1.9 0.4 2 0.5 4 1 6 1.7 0.6 0.2 1.2 0.4 1.9 0.7 2.5 1 4.9 2.1 7.1 3.4l-56.9-33.1z" fill="#FFFFFF" p-id="6266"></path><path d="M685.7 849.9c-0.1-0.1-0.1-0.1 0 0l-56.9-33.1c-22.6-13.2-35.2-40.1-35.3-75.9 0-5.8 0.4-12.1 1.3-19.9 0-1.1 0.1-1.7 0.2-2.4l0.3-1.7c0.6-3.8 1.1-6.8 1.7-9.8l0.2-1.5c0.1-0.9 0.3-1.8 0.5-2.7l0.5-2.1c0.4-1.7 0.8-3.4 1.3-5.2l8.7-27.7c1.3-3.4 2.7-6.7 4.1-10l0.6-1.3c1.4-3.2 2.6-5.8 3.8-8.4l4.8-9.5c1.1-2.1 2.3-4.1 3.4-6.2l6.9 2-6.1-3.4 0.7-1.3c2.2-3.8 4.1-7 6.1-10.1l3.9-5.9c0.8-1.3 1.7-2.5 2.5-3.8l10.3-13.5c1.5-1.8 2.9-3.6 4.4-5.3l3.4-3.9c3.3-3.6 5.8-6.3 8.3-8.8l8.6-8.3c2.1-1.9 4.2-3.8 6.4-5.6l3.8-3.2c2.4-1.9 4.7-3.6 7.1-5.4l3.4-2.5c3.5-2.4 7.1-4.8 10.8-6.9 4.4-2.5 9-4.8 14.4-7.2 0.7-0.4 1.2-0.6 1.6-0.8 0.7-0.3 1.4-0.5 2.1-0.8 3.5-1.3 6.3-2.3 9-3.1 1.3-0.5 2-0.7 2.6-0.9l1.8-0.4c2.3-0.5 3.9-0.9 5.5-1.2 1.6-0.4 2.3-0.5 2.9-0.6l2.4-0.3c2.2-0.2 3.4-0.4 4.5-0.5l2-0.2c1.9-0.1 3.7 0 5.5 0l1.6 7 0.4-7c3 0.2 5.4 0.5 7.9 0.9l2.7 0.6 0.2 7.2 1.4-6.8c0.9 0.2 1.8 0.4 2.6 0.6 0.8 0.2 1.6 0.5 2.4 0.8l2.9 1c3.3 1.3 5.4 2.3 7.4 3.5l0.7 0.4 56.9 33.1-7 12.1c-2-1.1-4.1-2.1-6.2-2.9l0.1-0.6-1.4-0.8-0.3 0.9c-1.7-0.6-3.4-1.1-5.2-1.5l-0.1-2.6-1-0.6-0.5 2.8c-2.3-0.4-4.7-0.8-7.1-0.9l-1.2-7-0.2 7c-2.1-0.1-4.2 0-6.3 0.1l-2.6 0.3c-2.1 0.2-3.9 0.5-5.7 0.9-1.3 0.3-2.7 0.5-4.1 0.9l-4.5 1.2c-2.4 0.7-4.8 1.5-7.2 2.5-1.7 0.7-2.8 1.1-4 1.6-4.3 1.8-8.6 3.9-13 6.5-3.4 1.9-6.6 4.1-9.9 6.3l-3.1 2.3c-2.2 1.6-4.4 3.2-6.6 5l-2.9 2.4c-2.6 2.2-4.6 3.9-6.6 5.7l-7.2 6.9c-3.2 3.2-5.5 5.7-7.8 8.3-1.7 1.9-2.9 3.2-4.1 4.6-1.4 1.7-2.8 3.3-4.1 5-1.6 2-3.2 4-4.8 6.1l-2.9 4c-1.8 2.5-3.5 5-5.2 7.5l-2 3.1c-2.3 3.6-4.6 7.2-6.7 10.9l-7.1-1.6 6.1 3.5c-1.8 3.2-3.5 6.3-5.2 9.6l-1.6 3.2c-1.7 3.4-3.3 6.8-4.8 10.2l-7-1.5 6.4 2.8c-1.7 3.9-3.2 7.7-4.7 11.6l-0.9 2.5c-1.4 3.8-2.3 6.6-3.2 9.5l-1.3 4.4c-0.7 2.5-1.4 5-2 7.5l-1.3 5.3c-0.3 1.4-0.6 2.8-0.8 4.2l-0.3 1.6c-0.5 2.8-1 5.6-1.4 8.3l-0.4 3.5c-0.9 8-1.3 13.8-1.3 19.1 0.1 30.6 10.1 53.2 28.2 63.8h0.1l-7.2 12.5zM614 672.5l6.5 2.5-8.7 29.2-7.3 0.4 6.8 1.4-0.7 3.9c-0.5 2.8-1 5.6-1.4 8.3l-0.2 1.4-7.1 0.2 6.9 1.3-0.1 1.6c-0.8 7.1-1.2 12.9-1.2 18.2 0.1 30.6 10.1 53.3 28.3 63.8l22.7 13.2c-5.3-12.4-8-27.2-8.1-43.9 0-5.9 0.4-12.2 1.3-19.9l0.6-4.8c0.5-3 1-6 1.5-8.9l0.3-1.6c0.3-1.5 0.6-3.1 0.9-4.6l1.4-5.7c0.7-2.7 1.4-5.4 2.2-8l1.4-4.6c0.9-3 2-6 3-9l1.3-3.7c1.5-4.1 3.2-8.2 5-12.3l0.6-1.4c1.6-3.6 3.3-7.2 5.1-10.8l1.7-3.4c1.7-3.4 3.5-6.7 5.4-10.1l1.1-1.9c2.3-3.9 4.6-7.7 7-11.4l1.5-2.3c2.4-3.6 4.3-6.3 6.2-8.9l3.1-4.2c1.7-2.2 3.4-4.4 5.1-6.5 1.4-1.8 2.9-3.6 4.3-5.3 1.2-1.5 2.5-2.9 3.8-4.3 2.9-3.3 5.4-5.9 8-8.5 2.1-2.2 3.4-3.5 4.7-4.8l3.8-3.5c2.1-1.9 4.2-3.8 6.4-5.6l3.8-3.2c2.4-1.9 4.7-3.6 7.1-5.4l3.4-2.5c3.5-2.4 7.2-4.8 10.8-6.9 4.4-2.5 9.1-4.9 14.4-7.2 1.3-0.6 2.6-1.1 3.9-1.6 3.4-1.3 6.1-2.3 8.8-3.1 1.7-0.5 3.5-1 5.2-1.4 1.6-0.4 3.2-0.7 4.8-1 2.2-0.4 4.3-0.7 6.3-1h0.1l-23.1-13.4c-1.9-1-3.5-1.8-5.1-2.5l-10.3-3c-1.9-0.3-3.9-0.6-5.8-0.7l-1.6-7-0.2 7c-1.8 0-3.2-0.1-4.7 0l-2.1-6.8 0.5 7-8.3 1.1c-1.3 0.3-2.7 0.5-4.1 0.9l-4.5 1.2c-2.4 0.7-4.8 1.5-7.2 2.5l-4 1.6c-4.3 1.8-8.6 3.9-13 6.4-3.3 1.9-6.6 4.1-9.9 6.3l-3.2 2.3c-2.2 1.6-4.4 3.2-6.6 5l-2.8 2.3c-2.8 2.4-4.8 4.1-6.7 5.9l-8 7.8c-2.4 2.4-4.7 4.9-7 7.5l-4.1 4.6c-1.4 1.7-2.8 3.3-4.1 5l-15 20.7-6.7-2.5 5.9 3.8c-1.9 3-3.7 5.9-5.5 9l-7-1.8 6.1 3.4-0.8 1.5c-1.1 1.9-2.2 3.9-3.3 5.9l-4.6 9c-1.2 2.5-2.3 5-3.4 7.5l-7-1.4 6.4 2.7c-1.6 3.6-2.9 6.8-4.1 10l-6.8-1z" fill="#0276F7" p-id="6267"></path><path d="M875.1 648.3c0.3 69-48.4 153.2-108.6 188.1-60 34.6-109 6.7-109.1-62.4-0.3-69 48.4-153.2 108.4-187.8 60.2-34.8 109.1-6.9 109.3 62.1z" fill="#D4E4FC" p-id="6268"></path><path d="M717.8 858.2c-11.6 0-22.4-2.7-32-8.3-22.8-13.1-35.3-40.1-35.4-76-0.3-71.2 49.9-158.1 111.9-193.9 31.5-18.2 61.4-20.9 84.3-7.7 22.7 13.1 35.3 40 35.4 75.9 0.3 71.1-50 158.2-112 194.1-18.3 10.6-36 15.9-52.2 15.9z m96.9-280.1c-13.8 0-29.2 4.7-45.4 14-58.1 33.5-105.2 115-104.9 181.7 0.1 30.7 10.2 53.5 28.4 64 18.4 10.6 43.3 7.9 70.2-7.6 58.2-33.7 105.3-115.4 105.1-182-0.1-30.6-10.1-53.3-28.4-63.8-7.4-4.2-15.8-6.3-25-6.3z" fill="#0276F7" p-id="6269"></path><path d="M762.9 783.2c-3.9 0-7-3.1-7-7V691l-16 28.7c-1.9 3.4-6.2 4.6-9.5 2.7-3.4-1.9-4.6-6.1-2.7-9.5l29.1-52.2c1.5-2.8 4.8-4.2 7.9-3.4 3.1 0.8 5.2 3.6 5.2 6.8v112c0 4-3.1 7.1-7 7.1zM788.6 766.6c-3.9 0-7-3.1-7-7V646.2c0-2.5 1.4-4.8 3.5-6.1 2.2-1.2 4.9-1.2 7.1 0.1l33.7 20.4c3.3 2 4.4 6.3 2.4 9.6-2 3.3-6.3 4.4-9.6 2.4l-23.1-14v101.1c0 3.8-3.1 6.9-7 6.9z" fill="#0276F7" p-id="6270"></path></svg>