<?xml version="1.0" standalone="no"?><!DOCTYPE svg PUBLIC "-//W3C//DTD SVG 1.1//EN" "http://www.w3.org/Graphics/SVG/1.1/DTD/svg11.dtd"><svg t="1556009198789" class="icon" style="" viewBox="0 0 1024 1024" version="1.1" xmlns="http://www.w3.org/2000/svg" p-id="7297" xmlns:xlink="http://www.w3.org/1999/xlink" width="200" height="200"><defs><style type="text/css"></style></defs><path d="M390.6 952.7c-1.2 0-2.3-0.3-3.4-0.9l-239-131.6c-2.2-1.2-3.6-3.6-3.6-6.1V271.7c0-2.4 1.3-4.7 3.4-6L466.2 72.3c1.1-0.7 2.4-1 3.6-1 1.2 0 2.4 0.3 3.4 0.9l241.5 136.3c2.2 1.2 3.5 3.6 3.5 6.1V765c0 2.5-1.4 4.8-3.6 6.1L394 951.8c-1 0.6-2.2 0.9-3.4 0.9z" fill="#B5D6FB" p-id="7298"></path><path d="M469.8 78.3l241.5 136.3V765L390.6 945.7l-239-131.6V271.7L469.8 78.3m0-14c-2.5 0-5 0.7-7.3 2L144.4 259.7c-4.2 2.5-6.7 7.1-6.7 11.9V814c0 5.1 2.8 9.8 7.2 12.2l239 131.6c2.1 1.2 4.4 1.7 6.7 1.7 2.4 0 4.7-0.6 6.9-1.8L718.3 777c4.4-2.5 7.1-7.1 7.1-12.2V214.6c0-5-2.7-9.7-7.1-12.2L476.7 66.1c-2.1-1.2-4.5-1.8-6.9-1.8z" fill="#0276F7" p-id="7299"></path><path d="M469.8 78.3L151.6 271.7l239 129.9 320.8-187z" fill="#FFFFFF" p-id="7300"></path><path d="M390.6 914.3V401.6" fill="#B5D6FB" p-id="7301"></path><path d="M390.6 921.3c-3.9 0-7-3.1-7-7V401.6c0-3.9 3.1-7 7-7s7 3.1 7 7v512.7c0 3.9-3.1 7-7 7z" fill="#0276F7" p-id="7302"></path><path d="M672.9 237L390.6 401.6" fill="#B5D6FB" p-id="7303"></path><path d="M390.6 408.6c-2.4 0-4.7-1.2-6-3.5-1.9-3.3-0.8-7.6 2.5-9.6l282.3-164.6c3.3-1.9 7.6-0.8 9.5 2.5 1.9 3.3 0.8 7.6-2.5 9.6L394.1 407.6c-1.1 0.7-2.3 1-3.5 1z" fill="#0276F7" p-id="7304"></path><path d="M182 288.2l208.6 113.4" fill="#B5D6FB" p-id="7305"></path><path d="M390.6 408.6c-1.1 0-2.3-0.3-3.3-0.8L178.7 294.3c-3.4-1.8-4.6-6.1-2.8-9.5 1.8-3.4 6.1-4.6 9.5-2.8L394 395.4c3.4 1.8 4.6 6.1 2.8 9.5-1.3 2.4-3.7 3.7-6.2 3.7z" fill="#0276F7" p-id="7306"></path><path d="M178.8 741.1L355.2 840" fill="#B5D6FB" p-id="7307"></path><path d="M355.2 846.9c-1.2 0-2.3-0.3-3.4-0.9l-176.4-98.9c-3.4-1.9-4.6-6.1-2.7-9.5 1.9-3.4 6.1-4.6 9.5-2.7l176.4 98.9c3.4 1.9 4.6 6.1 2.7 9.5-1.3 2.4-3.7 3.6-6.1 3.6z" fill="#0276F7" p-id="7308"></path><path d="M178.8 691.7l176.4 98.8" fill="#B5D6FB" p-id="7309"></path><path d="M355.2 797.5c-1.2 0-2.3-0.3-3.4-0.9l-176.4-98.9c-3.4-1.9-4.6-6.1-2.7-9.5 1.9-3.4 6.1-4.6 9.5-2.7l176.4 98.9c3.4 1.9 4.6 6.1 2.7 9.5-1.3 2.3-3.7 3.6-6.1 3.6z" fill="#0276F7" p-id="7310"></path><path d="M178.8 642.2l176.4 98.9" fill="#B5D6FB" p-id="7311"></path><path d="M355.2 748.1c-1.2 0-2.3-0.3-3.4-0.9l-176.4-98.9c-3.4-1.9-4.6-6.1-2.7-9.5 1.9-3.4 6.1-4.6 9.5-2.7L358.6 735c3.4 1.9 4.6 6.1 2.7 9.5-1.3 2.3-3.7 3.6-6.1 3.6z" fill="#0276F7" p-id="7312"></path><path d="M143.4 538.8l247.2 134.9" fill="#B5D6FB" p-id="7313"></path><path d="M140.074 544.92l6.707-12.29 247.188 134.915-6.707 12.289z" fill="#0276F7" p-id="7314"></path><path d="M313 431l40.1 20" fill="#B5D6FB" p-id="7315"></path><path d="M353.1 458c-1 0-2.1-0.2-3.1-0.7l-40.1-20c-3.4-1.7-4.8-5.9-3.1-9.4 1.7-3.4 5.9-4.8 9.4-3.1l40.1 20c3.4 1.7 4.8 5.9 3.1 9.4-1.3 2.4-3.7 3.8-6.3 3.8z" fill="#0276F7" p-id="7316"></path><path d="M785.5 582.9l93.7 5.9c0 1.8 0.1 35.3 0.2 71.6 0.2 72.6-88.5 169.1-93.2 174.1-4.7 0.3-93.6 6.4-93.8-66.2-0.1-38.9-0.2-68.6-0.2-70.2l93.3-115.2z" fill="#B5D6FB" p-id="7317"></path><path d="M778.1 841.8c-16.7 0-50.4-2.8-72.3-23.2-13.4-12.5-20.2-29.4-20.3-50.2-0.1-38.9-0.2-68.6-0.2-70.2 0-1.6 0.5-3.1 1.6-4.4l93.2-115.3c1.4-1.8 3.8-2.7 5.9-2.6l93.7 5.9c3.7 0.2 6.5 3.3 6.5 6.9 0 1.8 0.1 35.4 0.2 71.6 0.2 73.1-85.2 168.2-95 178.8-1.2 1.3-2.9 2.2-4.7 2.3-1.7 0.2-4.7 0.4-8.6 0.4z m-78.9-141.2c0 8.1 0.1 34.5 0.2 67.7 0 16.8 5.4 30.3 15.8 40 20.9 19.5 56.9 19.8 67.7 19.4 15.4-17.1 89.6-102.9 89.4-167.3-0.1-27.4-0.1-53.3-0.2-65.1l-83.5-5.3-89.4 110.6z" fill="#0276F7" p-id="7318"></path><path d="M721.8 821.8l-59-34.3c-16.3-9.5-29.3-25.7-29.4-53.5-0.1-38.9-0.2-68.6-0.2-70.2l59 34.3c0 1.6 0.1 31.2 0.2 70.2 0.1 27.7 13.1 44 29.4 53.5" fill="#B5D6FB" p-id="7319"></path><path d="M721.8 828.8c-1.2 0-2.4-0.3-3.5-0.9l-59-34.3c-21.4-12.4-32.8-33-32.9-59.5-0.1-38.9-0.2-68.6-0.2-70.2 0-2.5 1.3-4.8 3.5-6.1 2.2-1.2 4.8-1.2 7 0l59 34.3c2.2 1.2 3.5 3.5 3.5 6 0 1.6 0.1 31.2 0.2 70.1 0.1 21.8 8.5 37.4 25.9 47.5 3.3 1.9 4.5 6.2 2.5 9.5-1.2 2.3-3.6 3.6-6 3.6zM640.2 676c0 12.4 0.1 33.4 0.2 58 0.1 21.5 8.8 37.5 25.9 47.4l23.8 13.9c-3.1-8.1-4.7-17.1-4.7-27-0.1-31.3-0.2-56.6-0.2-66.2l-45-26.1z" fill="#0276F7" p-id="7320"></path><path d="M785.5 582.9l-93.3 115.2-59-34.3 93.2-115.2 93.9 4.6 59 34.3z" fill="#FFFFFF" p-id="7321"></path><path d="M692.2 705.1c-1.2 0-2.4-0.3-3.5-0.9l-59-34.3c-1.8-1-3-2.8-3.4-4.8-0.4-2 0.2-4.1 1.4-5.7L721 544.2c1.4-1.7 3.5-2.8 5.8-2.6l93.9 4.6c1.1 0.1 2.2 0.4 3.2 0.9l59 34.3c2.8 1.6 4.1 4.9 3.2 8-0.9 3.1-3.8 5.3-7 5l-90.3-4.4-91 112.5c-1.5 1.7-3.5 2.6-5.6 2.6z m-48.4-43.2l46.8 27.2 89.5-110.6c1.4-1.7 3.6-2.8 5.8-2.6l65.2 3.2-32.8-19-88.6-4.4-85.9 106.2z" fill="#0276F7" p-id="7322"></path><path d="M785.5 759.4c-1.3 0-2.6-0.4-3.7-1.1l-40.7-25.5c-3.3-2-4.3-6.3-2.2-9.6 2.1-3.3 6.4-4.3 9.6-2.2l34 21.2 39.2-87.2c1.6-3.5 5.8-5.1 9.2-3.5 3.5 1.6 5.1 5.7 3.5 9.2l-42.5 94.5c-0.8 1.8-2.4 3.2-4.3 3.8-0.8 0.3-1.4 0.4-2.1 0.4z" fill="#0276F7" p-id="7323"></path></svg>