<?xml version="1.0" standalone="no"?><!DOCTYPE svg PUBLIC "-//W3C//DTD SVG 1.1//EN" "http://www.w3.org/Graphics/SVG/1.1/DTD/svg11.dtd"><svg t="1556009228585" class="icon" style="" viewBox="0 0 1031 1024" version="1.1" xmlns="http://www.w3.org/2000/svg" p-id="8046" xmlns:xlink="http://www.w3.org/1999/xlink" width="201.3671875" height="200"><defs><style type="text/css"></style></defs><path d="M425.141908 21.461078l-367.904191 175.776447c-69.493014 32.702595-69.493014 106.283433 0 138.986028l367.904191 175.776447c53.141717 24.526946 130.810379 24.526946 183.952096 0l367.904192-175.776447c69.493014-32.702595 69.493014-106.283433 0-138.986028l-367.904192-175.776447c-53.141717-28.61477-134.898204-28.61477-183.952096 0z" fill="#2E92F3" p-id="8047"></path><path d="M1026.052088 785.884232l-421.045908 216.65469c-53.141717 28.61477-130.810379 28.61477-183.952096 0l-421.045908-216.65469v-89.932136l457.836327 233.005988c28.61477 16.351297 77.668663 16.351297 106.283433 0l457.836327-233.005988v89.932136h4.087825z" fill="#2B8FF3" p-id="8048"></path><path d="M1026.052088 540.61477l-421.045908 216.654691c-53.141717 28.61477-130.810379 28.61477-183.952096 0l-421.045908-216.654691V450.682635l457.836327 233.005988c28.61477 16.351297 77.668663 16.351297 106.283433 0l457.836327-233.005988v89.932135h4.087825z" fill="#2B8FF3" p-id="8049"></path></svg>